/* XPM */
static char * bottom_left_corner_xpm[] = {
"32 32 36 1",
" 	c #40264D",
".	c #7A7290",
"+	c #58526A",
"@	c #413D4F",
"#	c #877193",
"$	c #62526A",
"%	c #473751",
"&	c #3D244B",
"*	c #5F4F67",
"=	c #5F4F66",
"-	c #3D244A",
";	c #45354E",
">	c #7E698B",
",	c #3B2248",
"'	c #5B4D63",
")	c #5C4C63",
"!	c #5A4C63",
"~	c #43334C",
"{	c #42334C",
"]	c #42334A",
"^	c #362042",
"/	c #361F41",
"(	c #55465B",
"_	c #766284",
":	c #54465B",
"<	c #756183",
"[	c #311C3D",
"}	c #4E4155",
"|	c #382B40",
"1	c #4E4154",
"2	c #4D4054",
"3	c #301B3A",
"4	c #4C4053",
"5	c #311B3B",
"6	c #6D5A7D",
"7	c #4C3F52",
" .+++@                          ",
" .+++@#### $$$$$$ ###### ###### ",
" .+++@$$$$ $$$$$$ $$$$$$ $$$$$$ ",
" .+++@%%%% $$$$$$ %%%%%% $$$$$$ ",
" @@@@@                          ",
" .+++@ ###### $$$$$$ ####### $$$",
" .+++@ $$$$$$ $$$$$$ $$$$$$$ $$$",
" .+++@ $$$$$$ $$$$$$ %%%%%%% %%%",
" .+++@                          ",
" @@@@@$$$$ ###### $$$$$$ ###### ",
" .+++@$$$$ $$$$$$ $$$$$$ $$$$$$ ",
" .+++@$$$$ %%%%%% $$$$$$ $$$$$$ ",
" .+++@                          ",
" .+++@ $$$$$$ ###### ####### ###",
" .+++@&******&******&******=-=**",
" @@@@@&;;;;;;&******&;;;;;;;-=**",
" .+++@&&&&&&&&&&&&&&&&&&&&&---&&",
" .+++@>>>>,>>>>>>,>>>>>>,'))!!',",
" .+++@'''','''''','''''','))!!',",
" .+++@~~~~,'''''','''''',~{{]]~,",
" .+++@^^^^^^^^^^^^^^^^^^^^^///^^",
" .+++@^((((((^______^((((((:/<__",
" @@@@@^((((((^((((((^((((((:/:((",
" .+++@[}}}}}}[||||||[}}}}}1234}}",
" .+++@[[[[[[[[[[[[[[[[[[[[[535[[",
" .+++@6666[}}}}}}[666666[}1274}[",
" .+++@@@@@@@@@@@@@@@@@@@@@@@@@@@",
" .++++++@++++++++++@++++++++@+++",
" ..+++++@++++++++++@++++++++@+++",
" @......@..........@........@...",
" @@@@@@@@@@@@@@@@@@@@@@@@@@@@@@@",
" #@@@@@@@@@@@@@@@@@@@@@@@@@@@@@@"};
