/* XPM */
static char * collectible_xpm[] = {
"32 32 319 2",
"  	c #7D6812",
". 	c #816C17",
"+ 	c #CF4C36",
"@ 	c #D34D38",
"# 	c #4789A5",
"$ 	c #6E442E",
"% 	c #694330",
"& 	c #793F28",
"* 	c #B24126",
"= 	c #C2452E",
"- 	c #EAB180",
"; 	c #65412F",
"> 	c #47323F",
", 	c #64422F",
"' 	c #49739A",
") 	c #49789D",
"! 	c #B6C1B1",
"~ 	c #74452E",
"{ 	c #794E37",
"] 	c #49769B",
"^ 	c #624230",
"/ 	c #61412F",
"( 	c #321E29",
"_ 	c #AD3E23",
": 	c #BF442D",
"< 	c #D24D37",
"[ 	c #634130",
"} 	c #CD4C38",
"| 	c #CB4C3D",
"1 	c #48779B",
"2 	c #4987A4",
"3 	c #71432D",
"4 	c #745040",
"5 	c #4A7299",
"6 	c #B7C2B1",
"7 	c #E6B383",
"8 	c #6C4B64",
"9 	c #B74127",
"0 	c #E17E55",
"a 	c #CC4C3C",
"b 	c #487A9D",
"c 	c #674331",
"d 	c #6B4532",
"e 	c #6E4531",
"f 	c #D04D38",
"g 	c #704F3B",
"h 	c #B9916E",
"i 	c #476B96",
"j 	c #4881A1",
"k 	c #563527",
"l 	c #523424",
"m 	c #553627",
"n 	c #E9B600",
"o 	c #583B28",
"p 	c #593C29",
"q 	c #A23B1C",
"r 	c #AF3F24",
"s 	c #724A32",
"t 	c #9E432C",
"u 	c #D15D46",
"v 	c #553826",
"w 	c #523422",
"x 	c #533422",
"y 	c #EAA000",
"z 	c #E8AC00",
"A 	c #F0C936",
"B 	c #E9CA66",
"C 	c #533322",
"D 	c #5F402E",
"E 	c #644230",
"F 	c #3C2110",
"G 	c #543525",
"H 	c #674444",
"I 	c #C69331",
"J 	c #75422F",
"K 	c #573928",
"L 	c #4C2E1F",
"M 	c #462818",
"N 	c #422717",
"O 	c #472818",
"P 	c #452616",
"Q 	c #422616",
"R 	c #3F2313",
"S 	c #4A2C1D",
"T 	c #533425",
"U 	c #593627",
"V 	c #FF831E",
"W 	c #FBC278",
"X 	c #FA800A",
"Y 	c #E99400",
"Z 	c #E9A700",
"` 	c #7A6517",
" .	c #495389",
"..	c #4886A3",
"+.	c #4E86A0",
"@.	c #63412F",
"#.	c #C28A14",
"$.	c #E7AD00",
"%.	c #CB9D0B",
"&.	c #4B2D1E",
"*.	c #452717",
"=.	c #472919",
"-.	c #482A1A",
";.	c #E27100",
">.	c #FC8015",
",.	c #FE8218",
"'.	c #543523",
").	c #809FB7",
"!.	c #5B8598",
"~.	c #7A544E",
"{.	c #E68A00",
"].	c #CF9101",
"^.	c #4D3120",
"/.	c #442918",
"(.	c #904B32",
"_.	c #893922",
":.	c #883923",
"<.	c #964B33",
"[.	c #553625",
"}.	c #D65231",
"|.	c #533424",
"1.	c #465C8D",
"2.	c #4A6693",
"3.	c #51383B",
"4.	c #7E5423",
"5.	c #824531",
"6.	c #97491E",
"7.	c #6D3C2E",
"8.	c #86422F",
"9.	c #98491F",
"0.	c #4B2D1A",
"a.	c #C04C17",
"b.	c #D14C37",
"c.	c #5C3C2A",
"d.	c #EF7B27",
"e.	c #78452C",
"f.	c #9E431B",
"g.	c #733D2B",
"h.	c #733C2B",
"i.	c #784C38",
"j.	c #486391",
"k.	c #487C9E",
"l.	c #AA3E22",
"m.	c #E5AE7A",
"n.	c #603527",
"o.	c #92402E",
"p.	c #C46400",
"q.	c #C86926",
"r.	c #5F3C25",
"s.	c #854E2F",
"t.	c #7C442D",
"u.	c #623326",
"v.	c #48598C",
"w.	c #4B7A9E",
"x.	c #6B4531",
"y.	c #A13B1C",
"z.	c #A0391C",
"A.	c #953D24",
"B.	c #CE4B36",
"C.	c #E47E54",
"D.	c #AB4437",
"E.	c #53352D",
"F.	c #5E3E31",
"G.	c #6E4732",
"H.	c #754B33",
"I.	c #543424",
"J.	c #933820",
"K.	c #A23B1D",
"L.	c #B64127",
"M.	c #4D3334",
"N.	c #4E343D",
"O.	c #4A83A3",
"P.	c #80AABD",
"Q.	c #7D6813",
"R.	c #50301E",
"S.	c #5C3B2A",
"T.	c #4F301F",
"U.	c #5B3E3C",
"V.	c #9F391A",
"W.	c #5A3D48",
"X.	c #4C301F",
"Y.	c #5B3B29",
"Z.	c #475D8E",
"`.	c #48558B",
" +	c #753F26",
".+	c #E8B500",
"++	c #806A19",
"@+	c #C5472F",
"#+	c #7E5C43",
"$+	c #4E322F",
"%+	c #563523",
"&+	c #4A2D1E",
"*+	c #5A3E2F",
"=+	c #E9A100",
"-+	c #E9B000",
";+	c #60402E",
">+	c #62402F",
",+	c #A93D22",
"'+	c #E3AD77",
")+	c #C54731",
"!+	c #E8B400",
"~+	c #EFC834",
"{+	c #EACB66",
"]+	c #AF693F",
"^+	c #8F5536",
"/+	c #895D43",
"(+	c #89644B",
"_+	c #4A2D1D",
":+	c #5E3F2C",
"<+	c #D14E35",
"[+	c #D7542D",
"}+	c #5E3E2B",
"|+	c #543625",
"1+	c #A33C1E",
"2+	c #D18003",
"3+	c #E99900",
"4+	c #F0BC21",
"5+	c #E9B100",
"6+	c #A1562E",
"7+	c #99512A",
"8+	c #974F24",
"9+	c #AE7756",
"0+	c #7F5E4C",
"a+	c #6F4933",
"b+	c #4C3020",
"c+	c #432817",
"d+	c #875E49",
"e+	c #85695B",
"f+	c #C2472F",
"g+	c #E17E52",
"h+	c #B8C4B3",
"i+	c #5A3D2B",
"j+	c #FF8421",
"k+	c #5B3E2C",
"l+	c #8D6D51",
"m+	c #E67E00",
"n+	c #E57C00",
"o+	c #884D36",
"p+	c #9B5129",
"q+	c #6D3224",
"r+	c #99512B",
"s+	c #9F5122",
"t+	c #A25120",
"u+	c #A96031",
"v+	c #A5673F",
"w+	c #432818",
"x+	c #412616",
"y+	c #48558A",
"z+	c #476291",
"A+	c #523322",
"B+	c #D36600",
"C+	c #DC6B00",
"D+	c #EF7800",
"E+	c #FF821A",
"F+	c #905E3D",
"G+	c #A2643D",
"H+	c #9B5A33",
"I+	c #9B512A",
"J+	c #A35120",
"K+	c #A3511E",
"L+	c #AC6337",
"M+	c #9F562E",
"N+	c #6A4535",
"O+	c #492A19",
"P+	c #4C2E1E",
"Q+	c #503120",
"R+	c #AD7E5B",
"S+	c #9E6541",
"T+	c #A55F31",
"U+	c #A25122",
"V+	c #9E512B",
"W+	c #A85B2E",
"X+	c #AC6A49",
"Y+	c #8D5F49",
"Z+	c #7C513D",
"`+	c #492C1A",
" @	c #492C1D",
".@	c #835B44",
"+@	c #92533A",
"@@	c #A66646",
"#@	c #98512A",
"$@	c #9C5029",
"%@	c #924731",
"&@	c #98502A",
"*@	c #A05021",
"=@	c #B46334",
"-@	c #AB6947",
";@	c #A36549",
">@	c #9A6341",
",@	c #A66541",
"'@	c #A7633A",
")@	c #AF6A44",
"!@	c #AA5C2E",
"~@	c #A85C2E",
"{@	c #9A5029",
"]@	c #954932",
"^@	c #844729",
"/@	c #A3562B",
"(@	c #A1562B",
"_@	c #9C552B",
":@	c #9C542B",
"<@	c #A0552B",
"[@	c #A65627",
"}@	c #97502A",
"|@	c #763C2B",
"1@	c #7E4532",
"2@	c #7F4732",
"3@	c #86432E",
"4@	c #844331",
"5@	c #85422F",
"6@	c #844333",
"7@	c #814432",
"8@	c #81432E",
"9@	c #81422D",
"0@	c #753928",
"a@	c #6C3224",
"b@	c #703222",
"c@	c #703123",
"d@	c #703224",
"  .                           .     .   .                       ",
"          .     . .           .                                 ",
"                            .   . .         .     . .     .     ",
"                                          .         .           ",
"      .                 .   .   . .       .         .   . .     ",
"                    .   .       .                             . ",
"                  .       + @ @           # #     .             ",
"              . .   $ % & * = - @ ; > , ' ) ! #       .   .     ",
"    .         ~ { ] # ^ / ( _ : < / [ } | ) 1 2 3         .     ",
"      .     4 ^ ^ 5 6 # 7 7 > 8 / / / 9 0 a b c d e             ",
".         + f g h > i j k l m n n o p q r + [ / ^ e e   n       ",
"  .     s t @ u > 8 > v w x y z A B C ( > 8 p D / E 8 n n n     ",
"    F G H I J K K L M N O P Q ( > 8 R S T p p U p V W X Y Z `   ",
" ...+.@.#.$.%.L &.N N *.=.F =.-.F =.F S M F p G > ;.>.,.> '.F . ",
"..)...!.~.{.].^./.F F F (._._._._._.:.<.F F F [.p ( ;.D D }.|.. ",
" .1.2.@.H 3.4.=.F F 5.6.7.7.7.7.7.7.7.8.9.M 0.F # @.@.@.a.b.@   ",
"( > c.@.@.d.-.^.F e.f.g.                h.i.F j.k.@.@.8 l._ m.G ",
"G n.o.@.p.>.q.=.r.s.t.                    u.> v.v.w.@.x.> y.z.G ",
"A.B.C.D.E.F.# D G.H.    .                   I.E 8 @.x.@.@.w =.F ",
"J.K.L.M.c.N.O.P.D D   Q.                    R.@.@.@ x.x.S.T.=.F ",
"U.V.W.=.X.Y.Z.`.8 D  +.+n           . ++@.@.@.@.@+b.< ^ =.n -.-.",
"#+$+%+=.&+*+> > D D  +=+-+n ;+>+@.@.@.@., D @.> ,+'+)+-.!+~+{+]+",
"^+/+(+>+F _+c.h x.:+<+[+=+# # D }+D D D D D m |+8 1+G 2+3+4+5+6+",
"7+8+9+0+a+b+/.c+d+e+f+g+> # # h+D D D i+j+j+k+l+h > -.8 m+n+o+p+",
"q+r+s+t+u+v+'.w+x+R > > G G y+z+8 A+K B+C+D+E+-.-.F+G+H+t+s+I+  ",
"  q+p+t+J+K+L+M+N+-.=.x+O+P+> > > Q+X.> B+-.i+R+S+T+J+J+U+r+q+  ",
"    q+V+p+J+W+W+W+X+Y+Z+=.-.-.-.`+ @-..@+@o+@@W+W+J+J+#@$@q+    ",
"      q+%@&@*@J+J+W+W+W+=@-@;@>@,@'@)@!@W+W+~@t+J+*@{@]@q+      ",
"        q+q+^@&@&@&@/@(@(@(@(@(@_@:@:@<@(@[@&@}@&@*@q+q+  . .   ",
"          . q+q+q+|@1@2@3@4@4@5@8.5@6@7@8@9@0@q+q+q+            ",
"                  a@q+b@c@c@c@c@c@c@c@c@d@d@q+                  ",
"              .                       .                   . . . "};
