/* XPM */
static char * obstacle_box_xpm[] = {
"32 32 10 1",
" 	c #7D6812",
".	c #816C17",
"+	c #2D241B",
"@	c #775A34",
"#	c #4A3316",
"$	c #9F7949",
"%	c #694D2A",
"&	c #65656F",
"*	c #614626",
"=	c #876439",
" .             .  . .           ",
"     .  ..     .                ",
"              . ..    .  ..  .  ",
"                     .    .     ",
"   .        . . ..   .    . ..  ",
"       +++++++++++++++++       .",
"      +@@#############@@+.      ",
"      +@@@@@@@@@@@@@@@@@+  . .  ",
"  .   +++++++++++++++++++    .  ",
"   .  +$$$$$$$$$$$$$$$$$+       ",
".     +%%@@@@@@@@@@@@@%%+ .     ",
" .    +%&@###########@&%+       ",
"      +%@##@#*****#=##@%+.    . ",
" . . .+%@#@@@#***#===#@%+      .",
"      +%@##@@@#*#===##@%+      .",
"      +%@#*#@@@#===#*#@%+       ",
"    ..+%@#**#@#===#**#@%+       ",
"      +%@#%**#===#***#@%+       ",
"      +%@#**#===#@#**#@%+       ",
"      +%@#*#===#@@@#*#@%+       ",
"      +%@##===#*#@@@##@%+    .  ",
"      +%@#===#***#@@@#@%+      .",
"     .+%@##=#*****#@##@%+     ..",
".    .+%@@###########@@%+     . ",
"      +%&@@@@@@@@@@@@@&%+       ",
"    . +%%%%%%%%%%%%%%%%%+       ",
"      +++++++++++++++++++ .. .  ",
"                .          .    ",
"          .  .     ..        .. ",
"     .                          ",
"                     .          ",
"       .           .         ..."};
