/* XPM */
static char * bottom_left_corner_xpm[] = {
"64 64 30 1",
" 	c #4B9FDC",
".	c #4999D4",
"+	c #37465C",
"@	c #4E4C52",
"#	c #B8B1AE",
"$	c #BFB8B4",
"%	c #BEB7B3",
"&	c #918D8D",
"*	c #4C9FDC",
"=	c #8AB9DB",
"-	c #53A1DC",
";	c #4D9FDC",
">	c #82B5DB",
",	c #86B7DB",
"'	c #83B5DB",
")	c #4D4B52",
"!	c #666467",
"~	c #656367",
"{	c #44434B",
"]	c #5AA4DC",
"^	c #43424A",
"/	c #676567",
"(	c #646267",
"_	c #4C4B51",
":	c #383742",
"<	c #4A9AD5",
"[	c #39526E",
"}	c #4B9FDB",
"|	c #59A4DC",
"1	c #52A1DC",
"                                                 .+@#$$$$$$$$$$$",
"                                                 .+@#$$$$$$$$$%%",
"                                                 .+@#$$$$$$$$$%%",
"                                                 .+@#$$$$$$$$$$$",
"                                                 .+@#$$$$$$$$$$$",
"                                                 .+@#$$$$$$$$$$$",
"                                                 .+@#$$$$$$$$$$$",
"                                                 .+@#$$$$$$$$$$$",
"                                                 .+@#$$$$$$$$$%%",
"                                                 .+@#$$$$$$$$$%%",
"                                                 .+@&&&&&&&&&&&&",
"                                                 .+@&&&&&&&&&&&&",
"     ****   ==============  ********             .+@&&&&&&&&&&&&",
"    *-------==============-------;**             .+@&&&&&&&&&&&&",
"  **->,,,,,,==============,,,,,,'-**             .+)!~~~!!!!!!!!",
"  **-,=======,==================,-**             .+{!~~~!!!!!!!!",
"  **-,=======,]--------],=======,-**             .+^&&&&&&&&&&/!",
"  **-,========**********========,-**             .+{&&&&&&&&&&!!",
"  **-',,,,,,==**********==,,,,,,>-**             .+)&&&&&&&&&&//",
"  **;------ **************]------*  ****         .+@&&&&&&&&&&//",
"  ********* **************-******   ****         .+@!~~~!!!!!!!!",
"         **               *         ****         .+@!~~~!!!!!!!!",
"         ***************            ****         .+@&&&&&&&&&&&&",
"         ***************            ****         .+@&&&&&&&&&&&&",
"            **                                   .+@&&&&&&&&&&&&",
"            **                                   .+@&&&&&&&&&&&&",
"                                                 .+@~~(~~~~(~(((",
"                                                 .+@~~(~~~~(~(((",
"                                                 .+@&&&&&&&&&&//",
"                                                 .+@&&&&&&&&&&!!",
"                                                 .+@&&&&&&&&&&!!",
"                                                 .+_&&&&&&&&&&//",
"                                                 .+:_@@@@@@@@@@@",
"                                                 <[+++++++++++++",
"                                                 }<.............",
"                                                                ",
"                                                                ",
"                                                                ",
"                                                                ",
"                                                                ",
"                                                                ",
"                                                                ",
"                                                                ",
"                                                                ",
"                                                                ",
"                                                                ",
"                                                                ",
"     ************                                               ",
"     ************                                               ",
"     ************                                               ",
"     *******************  **===============*********            ",
"     *************;---------===============---------*           ",
"     *************-',,,,,,,,===============,,,,,,,,>-*          ",
"     *************-,==========,====================,-*          ",
"     *************-,==========,]-------|,==========,-*          ",
"            ******-,===========*********===========,-*          ",
"            ******->,,,,,,,,===       **===,,,,,,,,>-*          ",
"                  *1-------|***         *** -------1*           ",
"                           1***************                     ",
"                           *   -------                          ",
"                                                                ",
"                                                                ",
"                                                                ",
"                                                                "};
