/* XPM */
static char * bottom_right_corner_xpm[] = {
"31 32 5 1",
" 	c None",
".	c #353540",
"+	c #BFB8B4",
"@	c #918D8D",
"#	c #636167",
"                         .++++.",
"                         .++++.",
"                         .++++.",
"                         .++++.",
"                         .++++.",
"                         .++++.",
"                         .@@@@.",
"                         .++++.",
"                         .++++.",
"                         .++++.",
"                         .++++.",
"                         .++++.",
"                         .++++.",
"                         .@@@@.",
"                         .++++.",
"    ......................++++.",
"    +++.++++++++.++++++.++++++.",
"    +++@++++++++@++++++@++++++.",
"    +++@++++++++@++++++@++++++.",
"    +++@++++++++@++++++@++++++.",
"    @@@#@@@@@@@@#@@@@@@#@@@@@@.",
".@@@@@@#@@@@@@@@#@@@@@@#@@@@@@.",
".#############################.",
"@@@@@@@@@#@@@@#@@@@@@#@@@@@@@@.",
"@@@@@@@@@#@@@@#@@@@@@#@@@@@@@@.",
"##############################.",
"#@@@@@@#@@@@@@@@#@@@@@@#@@@@@@.",
"#@@@@@@#@@@@@@@@#@@@@@@#@@@@@@.",
"##############################.",
"@@@@@@@@@#@@@@#@@@@@@#@@@@@@@@.",
"@@@@@@@@@#@@@@#@@@@@@#@@@@@@@@.",
"..............................."};
