/* XPM */
static char * carpet_xpm[] = {
"64 64 5 1",
" 	c None",
".	c #CA5954",
"+	c #EEB551",
"@	c #353540",
"#	c #918D8D",
"............++++++++........................++++++++............",
"............++++++++........................++++++++............",
"..++++++++++++....++++++++++++++++++++++++++++....++++++++++++..",
"..++++++++++++....++++++++++++++++++++++++++++....++++++++++++..",
"..++........................................................++..",
"..++........................................................++..",
"..++........................................................++..",
"..++........................................................++..",
"..++....@@@@@@@@@@@@@@@@@@@@@@@@@@@@@@@@@@@@@@@@@@@@@@@@....++..",
"..++....@@@@@@@@@@@@@@@@@@@@@@@@@@@@@@@@@@@@@@@@@@@@@@@@....++..",
"..++....@@############################################@@....++..",
"..++....@@############################################@@....++..",
"++++....@@##                                        ##@@....++++",
"++++....@@##                                        ##@@....++++",
"++......@@##                                        ##@@......++",
"++......@@##                                        ##@@......++",
"++......@@##                                        ##@@......++",
"++......@@##                                        ##@@......++",
"++++....@@##                                        ##@@....++++",
"++++....@@##                                        ##@@....++++",
"..++....@@##                                        ##@@....++..",
"..++....@@##                                        ##@@....++..",
"..++....@@##                                        ##@@....++..",
"..++....@@##                                        ##@@....++..",
"..++....@@##                                        ##@@....++..",
"..++....@@##                                        ##@@....++..",
"..++....@@##                                        ##@@....++..",
"..++....@@##                                        ##@@....++..",
"..++....@@##                                        ##@@....++..",
"..++....@@##                                        ##@@....++..",
"..++....@@##                                        ##@@....++..",
"..++....@@##                                        ##@@....++..",
"..++....@@##                                        ##@@....++..",
"..++....@@##                                        ##@@....++..",
"..++....@@##                                        ##@@....++..",
"..++....@@##                                        ##@@....++..",
"..++....@@##                                        ##@@....++..",
"..++....@@##                                        ##@@....++..",
"..++....@@##                                        ##@@....++..",
"..++....@@##                                        ##@@....++..",
"..++....@@##                                        ##@@....++..",
"..++....@@##                                        ##@@....++..",
"..++....@@##                                        ##@@....++..",
"..++....@@##                                        ##@@....++..",
"++++....@@##                                        ##@@....++++",
"++++....@@##                                        ##@@....++++",
"++......@@##                                        ##@@......++",
"++......@@##                                        ##@@......++",
"++......@@##                                        ##@@......++",
"++......@@##                                        ##@@......++",
"++++....@@##                                        ##@@....++++",
"++++....@@##                                        ##@@....++++",
"..++....@@############################################@@....++..",
"..++....@@############################################@@....++..",
"..++....@@@@@@@@@@@@@@@@@@@@@@@@@@@@@@@@@@@@@@@@@@@@@@@@....++..",
"..++....@@@@@@@@@@@@@@@@@@@@@@@@@@@@@@@@@@@@@@@@@@@@@@@@....++..",
"..++........................................................++..",
"..++........................................................++..",
"..++........................................................++..",
"..++........................................................++..",
"..++++++++++++....++++++++++++++++++++++++++++....++++++++++++..",
"..++++++++++++....++++++++++++++++++++++++++++....++++++++++++..",
"............++++++++........................++++++++............",
"............++++++++........................++++++++............"};
