/* XPM */
static char * door_closed_xpm[] = {
"32 32 32 1",
" 	c #7D6812",
".	c #816C17",
"+	c #7A7290",
"@	c #58526A",
"#	c #413D4F",
"$	c #2C2116",
"%	c #766047",
"&	c #836B52",
"*	c #634E38",
"=	c #78624B",
"-	c #67594B",
";	c #796858",
">	c #4C3928",
",	c #523F2C",
"'	c #999088",
")	c #AEA59D",
"!	c #B0AAA2",
"~	c #B3AEA7",
"{	c #B2ACA4",
"]	c #766D66",
"^	c #81776F",
"/	c #888078",
"(	c #3E2D1E",
"_	c #7C644D",
":	c #B9B9B9",
"<	c #727272",
"[	c #777777",
"}	c #606060",
"|	c #474747",
"1	c #7F7F7F",
"2	c #66513D",
"3	c #AAA098",
" .             .  . .           ",
"     . ++++++++++++++++++       ",
"     ++@@@@@@@@@@@@@@@@@@++  .  ",
"    +@@@@@@@@@@@@@@@@@@@@@@+    ",
"   +@@@@@@@@@@@@@@@@@@@@@@@@+.  ",
"  +@@@@##################@@@@+ .",
" +@@@@##$$$$$$$$$$$$$$$$##@@@@+ ",
"+@@@@##$$%&$*&$%=$-;$;;$$##@@@@+",
"+@@@##$>$>*$>>$*>$>*$$*$%$##@@@+",
"+@@@#$>,$>>$>>$*>$>**$>$>>$#@@@+",
"+@@@#$>,$>>$>>$,,$>>$$>$,>$#@@@+",
"+@@@#')!'''''''~{'''''''))'#@@@+",
"+@@@#]^/]]]]]]]^^]]]]]]]^^]#@@@+",
"+@@@#$(($(($(($($((($(($(($#@@@+",
"+@@@#$*,$>,$>,$>$,>,$>,$>,$#@@@+",
"+@@@#$*,$>,$>,$>$*>,$*,$>,$#@@@+",
"+@@@#$*,$>_$>,$>$*>,$*,$>,$#@@@+",
"+@@@#$*,$*,$>,$>$%*,$*,$*,$#@@@+",
"+@@@#$*,$*,$>,$>$$*,$*:::,$#@@@+",
"+@@@#$*,$*,$>,$%*$*,$*<[<,$#@@@+",
"+@@@#$*,$*,$>,$**$*,$}|||}$#@@@+",
"+@@@#$*,$*>$>>$>*$*>:,>$*,:#@@@+",
"+@@@#$*,$*>$>>$>*$*>},>$*>}#@@@+",
"+@@@#$*,$*>$$>$>*$*>$<111<$#@@@+",
"+@@@#$>>$*2_$>$>*$*>$,|||>$#@@@+",
"+@@@#$>>$>>,$>$>>$*$$,>$>>$#@@@+",
"+@@@#$>>$>,$>>$>>$,$,,>$>>$#@@@+",
"+@@@#'3!'''''''3!'''''''3!'#@@@+",
"+@@@#]^^]]]]]]]^^]]]]]]]^^]#@@@+",
"+@@@#$(($(($(($(($(($(($(($#@@@+",
"+@@@#$>>$$>$>>$>>$>>$>>$>>$#@@@+",
"+@@@#$>>2$>$2>$>*$>>$>>$>>$#@@@+"};
