/* XPM */
static char * floor_xpm[] = {
"64 64 5 1",
" 	c #BFB8B4",
".	c #C5BFBB",
"+	c #918D8D",
"@	c #928E8D",
"#	c #938F8D",
"      ...    +@              ...                 @+             ",
"      ...    ++              .....               @+             ",
"      ...    ++              .....               @+     ...     ",
"             ++                ...               @+     ...     ",
"             +@                                  @+     ...     ",
"+++@@@@@@@@@@++@@@@@@@@@@@@@+@@@@@@@@@@@@@@@@@@@+++@@@@@@@@@@@@@",
"+++@@@@@@@@@@++@@@@@@@@@@@@@+++++++@@@@@@@@@@@@@+++@@@@@@@@@@@@@",
"    @@                    @@        @@                    @@    ",
"    @@                    ++        @@                    @@    ",
"    @@                    @@        @@                    @@    ",
"    ++                    ++        ++                    ++    ",
"    ++                    ++        ++                    ++    ",
"    +@                    @@        +@                    @@    ",
"    +@                    @@        +@                    @@    ",
"    +@                    @@        +@                    @@    ",
"    +@                    @@        +@          ...       @@    ",
"    +@        ...         @@        +@          .....     @@    ",
"    +@        ...         ++  ...   +@          .....     @@    ",
"    +@        ...         ++  ...   +@        ... ...     @@    ",
"..  +@                    ++  ...   +@        ...         @@    ",
"..  +@                    @@        +@        ...         @@    ",
"..  +@                    @@        +@                    @@    ",
"... +@                    @@        +@                    @@    ",
"... +@                    @@        +@                    +@    ",
"... +@       ...          @@        +@                    @@    ",
"    +@       .....        @@        +@                    @@    ",
"    +@       .....        @@        +@                    @@    ",
"    +@      ......        @@        +@                    @@    ",
"    +@      ...           @@        +@                    @@    ",
"    +@      ...           @@        +@                    @@    ",
"    +@                    @@        +@                    @@    ",
"    +@                    @@   ...  +@               ...  @@    ",
"    +@                    @@   ...  +@               ...  @@    ",
"    +@                    @@   ...  +@               ...  @@    ",
"    +@                    @@        +@                    @@    ",
"    +@                    @@        +@                    @@    ",
"    +@                    @@        +@                    @@    ",
"    +@                    @@        +@                    @@  ..",
"    +@                    @@        +@                    @@  ..",
"    +@                    @@        +@                    @@  ..",
"    +@                    @@        +@                    @@  ..",
"    +@     ...            @@        +@                    @@  ..",
"... +@     ...            @@        +@                    @@  ..",
"... +@     ...            @@        +@                    @@    ",
"... +@                    @@        +@                    @@    ",
"    +@                    @@        +@                    @@    ",
"    +@                    @@        +@                    @@    ",
"    +@                    @@        +@                    @@    ",
"    +@           ...      @@        +@                    @@    ",
"    +@           ...      @@        +@                    @@    ",
"    +@           ...      @@        +@                    @@    ",
"    +@                    @@        +@                    @@    ",
"    ++                    ++        ++                    ++    ",
"    ++                    ++        ++                    ##    ",
"    ##                    ##        ##                    @@    ",
"    ##                    ##        ##                    @@    ",
"    ##                    ##        ##                    ##    ",
"+++@@@@@@@@@@@@+++@@@@@@@@+++@@@@@@@@@@@+++@@@@@@@@@@+++@@@@@@@@",
"+++@@@@@@@@@@@@+++@@@@@@@@+++@@@@@@@@@@@+++@@@@@@@@@@+++@@@@@@@@",
"             ##                               ...##             ",
" ...         ##               ...             ...##   ...       ",
" .....       ##               ...             ...##   ...       ",
" .....       ##               ...                @@   ...       ",
"   ...       ##                                  @@             "};
