/* XPM */
static char * floor_xpm[] = {
"32 32 2 1",
" 	c #BFB8B4",
".	c #918D8D",
"           .         .          ",
"           .         .          ",
"           .         .          ",
"           .         .          ",
"           .         .          ",
"................................",
" .    .                  .    . ",
" .    .                  .    . ",
" .    .                  .    . ",
" .    .                  .    . ",
" .    .                  .    . ",
" .    .                  .    . ",
" .    .                  .    . ",
" .    .                  .    . ",
" .    .                  .    . ",
" .    .                  .    . ",
" .    .                  .    . ",
" .    .                  .    . ",
" .    .                  .    . ",
" .    .                  .    . ",
" .    .                  .    . ",
" .    .                  .    . ",
" .    .                  .    . ",
" .    .                  .    . ",
" .    .                  .    . ",
" .    .                  .    . ",
"................................",
"        .       .        .      ",
"        .       .        .      ",
"        .       .        .      ",
"        .       .        .      ",
"................................"};
