/* XPM */
static char * floor2_xpm[] = {
"32 32 2 1",
" 	c #7D6812",
".	c #816C17",
" .             .  . .           ",
"     .  ..     .                ",
"              . ..    .  ..  .  ",
"                     .    .     ",
"   .        . . ..   .    . ..  ",
"          . .   .              .",
"         .               .      ",
"       ..   .  .           . .  ",
"  .     .     . ..           .  ",
"   .   ...     .       .        ",
".        .     .          .     ",
" .            .   . .           ",
"        .              ...    . ",
" . . .       ..                .",
"       .            .          .",
"            .           .       ",
"    ..    .         .  .        ",
"                                ",
"            .          ..       ",
"        .                       ",
"                  ...        .  ",
"              .                .",
"     .          .             ..",
".    . .      ..              . ",
"                 .    .         ",
"    .                           ",
"                 .        .. .  ",
"                .          .    ",
"          .  .     ..        .. ",
"     .                          ",
"                     .          ",
"       .           .         ..."};
