/* XPM */
static char * left_wall_xpm[] = {
"32 32 4 1",
" 	c None",
".	c #353540",
"+	c #BFB8B4",
"@	c #918D8D",
"                          .++++.",
"                          .++++.",
"                          .++++.",
"                          .++++.",
"                          .++++.",
"                          .++++.",
"                          .@@@@.",
"                          .++++.",
"                          .++++.",
"                          .++++.",
"                          .++++.",
"                          .++++.",
"                          .++++.",
"                          .++++.",
"                          .++++.",
"                          .@@@@.",
"                          .++++.",
"                          .++++.",
"                          .++++.",
"                          .++++.",
"                          .++++.",
"                          .++++.",
"                          .@@@@.",
"                          .++++.",
"                          .++++.",
"                          .++++.",
"                          .++++.",
"                          .++++.",
"                          .++++.",
"                          .++++.",
"                          .@@@@.",
"                          .++++."};
