/* XPM */
static char * left_wall_xpm[] = {
"64 64 12 1",
" 	c #4D9FDC",
".	c #4C9FDB",
"+	c #4B9EDB",
"@	c #4B9FDC",
"#	c #353540",
"$	c #BEB7B3",
"%	c #BFB8B4",
"&	c #908C8C",
"*	c #918D8D",
"=	c #8AB9DB",
"-	c #4C9FDC",
";	c #4E9FDC",
"  ..            ..            ++@@@@@@@@@@@@@@@@@@##$$$$%%%%%%##",
"  ..            ..            ++@@@@@@@@@@@@@@@@@@##$$$$%%%%%%##",
"@@@@@@@@@@@@@@@@@@@@@@@@@@@@@@@@@@@@@@@@@@@@@@@@@@##$$$$%%%%%%##",
"@@@@@@@@@@@@@@@@@@@@@@@@@@@@@@@@@@@@@@@@@@@@@@@@@@##$$$$%%%%%%##",
"@@@@@@@@@@@@@@@@@@@@@@@@@@@@@@@@@@@@@@@@@@@@@@@@@@##$$$$%%%%%%##",
"@@@@@@@@@@@@@@@@@@@@@@@@@@@@@@@@@@@@@@@@@@@@@@@@@@##$$$$%%%%%%##",
"@@@@@@@@@@@@@@@@@@@@@@@@@@@@@@@@@@@@@@@@@@@@@@@@@@##&&&&******##",
"@@@@@@@@@@@@@@@@@@@@@@@@@@@@@@@@@@@@@@@@@@@@@@@@@@##&&&&******##",
"@@@@@@@@@@@@@@@@@@@@@@@@@@@@@@@@@@@@@@@@@@@@@@@@@@##%%%%%%%%%%##",
"@@@@@@@@@@@@@@@@@@@@@@@@@@@@@@@@@@@@@@@@@@@@@@@@@@##%%%%%%%%%%##",
"@@@@@@@@@@@@@@@@@@@@@@@@@@@@@@@@@@@@@@@@@@@@@@@@@@##%%%%%%%%%%##",
"@@@@@@@@@@@@@@@@@@@@@@@@@@@@@@@@@@@@@@@@@@@@@@@@@@##%%%%%%%%%%##",
"@@@@@@@@@@@@==============@@@@@@@@@@@@@@@@@@@@@@@@##%%%%%%%%%%##",
"@@@@@@@@@@@@==============@@@@@@@@@@@@@@@@@@@@@@@@##%%%%%%%%%%##",
"@@@@==============================@@@@@@@@@@@@@@@@##%%%%%%%%%%##",
"@@@@==============================@@@@@@@@@@@@@@@@##%%%%%%%%%%##",
"@@@@==========--@@@@@@--==========@@@@@@@@@@@@@@@@##%%%%%%%%%%##",
"@@@@==========--@@@@@@--==========@@@@@@@@@@@@@@@@##%%%%%%%%%%##",
"@@@@----@@----@@@@@@@@@@@@--;;;;;;@@@@@@@@@@@@@@@@##$$$$%%%%%%##",
"@@@@----@@----@@@@@@@@@@@@--;;;;;;@@@@@@@@@@@@@@@@##$$$$%%%%%%##",
"@@@@@@@@@@@@@@@@@@@@@@@@@@@@      @@@@@@@@@@@@@@@@##&&&&******##",
"@@@@@@@@@@@@@@@@@@@@@@@@@@@@      @@@@@@@@@@@@@@@@##&&&&******##",
"@@@@@@@@@@@@@@@@@@@@@@@@@@@@      @@@@@@@@@@@@@@@@##%%%%%%%%%%##",
"@@@@@@@@@@@@@@@@@@@@@@@@@@@@      @@@@@@@@@@@@@@@@##%%%%%%%%%%##",
"@@@@@@@@@@@@@@@@@@@@@@@@@@@@@@@@@@@@@@@@@@@@@@@@@@##%%%%%%%%%%##",
"@@@@@@@@@@@@@@@@@@@@@@@@@@@@@@@@@@@@@@@@@@@@@@@@@@##%%%%%%%%%%##",
"@@@@@@@@@@@@@@@@@@@@@@@@@@@@@@@@@@@@@@@@@@@@@@@@@@##%%%%%%%%%%##",
"@@@@@@@@@@@@@@@@@@@@@@@@@@@@@@@@@@@@@@@@@@@@@@@@@@##%%%%%%%%%%##",
"@@@@@@@@@@@@@@@@@@@@++        ++@@@@@@@@@@@@@@@@@@##$$$$%%%%%%##",
"@@@@@@@@@@@@@@@@@@@@++        ++@@@@@@@@@@@@@@@@@@##$$$$%%%%%%##",
"@@@@@@@@@@@@@@@@@@@@++        ++@@@@@@@@@@@@@@@@@@##%%%%%%%%%%##",
"@@@@@@@@@@@@@@@@@@@@++        ++@@@@@@@@@@@@@@@@@@##%%%%%%%%%%##",
"@@@@@@@@@@@@@@@@@@@@++        ++@@@@@@@@@@@@@@@@@@##%%%%%%%%%%##",
"@@@@@@@@@@@@@@@@@@@@++        ++@@@@@@@@@@@@@@@@@@##%%%%%%%%%%##",
"@@@@@@@@@@@@@@@@@@@@++        ++@@@@@@@@@@@@@@@@@@##%%%%%%%%%%##",
"@@@@@@@@@@@@@@@@@@@@++        ++@@@@@@@@@@@@@@@@@@##%%%%%%%%%%##",
"@@@@@@@@@@@@@@@@@@@@@@@@@@@@@@@@@@@@@@@@@@@@@@@@@@##$$$$%%%%%%##",
"@@@@@@@@@@@@@@@@@@@@@@@@@@@@@@@@@@@@@@@@@@@@@@@@@@##$$$$%%%%%%##",
"@@@@@@@@@@@@@@@@@@@@@@@@@@@@@@@@@@@@@@@@@@@@@@@@@@##&&&&******##",
"@@@@@@@@@@@@@@@@@@@@@@@@@@@@@@@@@@@@@@@@@@@@@@@@@@##&&&&******##",
"@@@@@@@@@@@@@@@@@@@@@@@@@@@@@@@@@@@@@@@@@@@@@@@@@@##%%%%%%%%%%##",
"@@@@@@@@@@@@@@@@@@@@@@@@@@@@@@@@@@@@@@@@@@@@@@@@@@##%%%%%%%%%%##",
"@@@@@@@@@@@@@@@@@@@@@@@@@@==========@@@@@@@@@@@@@@##%%%%%%%%%%##",
"@@@@@@@@@@@@@@@@@@@@@@@@@@==========@@@@@@@@@@@@@@##%%%%%%%%%%##",
"@@@@@@@@@@@@@@@@@@==========================@@@@@@##%%%%%%%%%%##",
"@@@@@@@@@@@@@@@@@@==========================@@@@@@##%%%%%%%%%%##",
"@@@@@@@@@@@@@@@@@@==========------==========@@@@@@##%%%%%%%%%%##",
"@@@@@@@@@@@@@@@@@@==========------==========@@@@@@##%%%%%%%%%%##",
"@@@@@@@@@@@@@@@@@@----@@------@@@@----@@----@@@@@@##%%%%%%%%%%##",
"@@@@@@@@@@@@@@@@@@----@@------@@@@----@@----@@@@@@##%%%%%%%%%%##",
"@@@@@@@@@@@@@@@@@@@@@@@@@@@@@@@@@@@@@@@@@@@@@@@@@@##$$$$%%%%%%##",
"@@@@@@@@@@@@@@@@@@@@@@@@@@@@@@@@@@@@@@@@@@@@@@@@@@##$$$$%%%%%%##",
"@@@@@@@@@@@@@@@@@@@@@@@@@@@@@@@@@@@@@@@@@@@@@@@@@@##&&&&******##",
"@@@@@@@@@@@@@@@@@@@@@@@@@@@@@@@@@@@@@@@@@@@@@@@@@@##&&&&******##",
"@@@@@@@@@@@@@@@@@@@@@@@@@@@@@@@@@@@@@@@@@@@@@@@@@@##%%%%%%%%%%##",
"@@@@@@@@@@@@@@@@@@@@@@@@@@@@@@@@@@@@@@@@@@@@@@@@@@##%%%%%%%%%%##",
"@@@@@@@@@@@@@@@@@@@@@@@@@@@@@@@@@@@@@@@@@@@@@@@@@@##%%%%%%%%%%##",
"@@@@@@@@@@@@@@@@@@@@@@@@@@@@@@@@@@@@@@@@@@@@@@@@@@##%%%%%%%%%%##",
"@@@@@@@@@@@@@@@@@@@@@@@@@@@@@@@@@@@@@@@@@@@@@@@@@@##%%%%%%%%%%##",
"@@@@@@@@@@@@@@@@@@@@@@@@@@@@@@@@@@@@@@@@@@@@@@@@@@##%%%%%%%%%%##",
"@@@@@@@@@@@@@@@@@@@@@@@@@@@@@@@@@@@@@@@@@@@@@@@@@@##$$$$%%%%%%##",
"@@@@@@@@@@@@@@@@@@@@@@@@@@@@@@@@@@@@@@@@@@@@@@@@@@##$$$$%%%%%%##",
"@@@@@@@@@@@@@@@@@@@@++        ++@@@@@@@@@@@@@@@@@@##$$$$%%%%%%##",
"@@@@@@@@@@@@@@@@@@@@++        ++@@@@@@@@@@@@@@@@@@##$$$$%%%%%%##"};
