/* XPM */
static char * obstacle_xpm[] = {
"64 64 8 1",
" 	c #BFB8B4",
".	c #C5BFBB",
"+	c #353540",
"@	c #735B42",
"#	c #EDE4DA",
"$	c #7E674C",
"%	c #604B3D",
"&	c #918D8D",
"                                                                ",
"                                                                ",
"                                                                ",
"                                                                ",
"                                                              ..",
"                                                              ..",
"                                                          ......",
"                                                          ......",
"                                                          ......",
"                                                          ......",
"                                                          ......",
"                                                                ",
"                                                                ",
"                                                                ",
"                                                                ",
"                     ++++++++++++++++++++++                     ",
"                     ++++++++++++++++++++++                     ",
"                     +@@@@@@@@@@@@@@#####++                     ",
"                     +@@@@@@@@@@@@@@#####++                     ",
"                     +@@$$$$@@$$$$@@$$$##++                     ",
"                     +@@$$$$@@$$$$@@$$$##++                     ",
"                     +@@$$$$@@$$$$@@$$$@@++                     ",
"                     +@@$$$$@@$$$$@@$$$@@++                     ",
"                     +@@$$$$@@$$$$@@$$$@@++                     ",
"                     +@@$$$$@@$$$$@@$$$@@++                     ",
"       +++++++++++++++@@$$$$@@$$$$@@$$$@@+++++++++++++++        ",
"       ++@@@@@@@@@@@@+@@$$$$@@$$$$@@$$$@@++@@@@@@######+        ",
"       ++@@@@@@@@@@@@+@@$$$$@@$$$$@@$$$@@++@@@@@@######+        ",
"       ++@@$$$$@@$$$$+@@@@@@@@@@@@@@@@@@@++$$$$@@$$$$##+        ",
"       ++@@$$$$@@$$$$+@@@@@@@@@@@@@@@@@@@++$$$$@@$$$$##+        ",
"       ++@@$$$$@@$$$$+%%%%%%%%%%%%%%%%%%%++$$$$@@$$$$@@+        ",
"       ++@@$$$$@@$$$$+%%%%%%%%%%%%%%%%%%%++$$$$@@$$$$@@+        ",
"      &++@@$$$$@@$$$$+%%@@@@%%@@@@%%@@@%%++$$$$@@$$$$@@+&&      ",
"      &++@@$$$$@@$$$$+%%@@@@%%@@@@%%@@@%%++$$$$@@$$$$@@+&&      ",
"      &++@@$$$$@@$$$$+%%@@@@%%@@@@%%@@@%%++$$$$@@$$$$@@+&&      ",
"      &++@@$$$$@@$$$$+%%@@@@%%@@@@%%@@@%%++$$$$@@$$$$@@+&&      ",
"      &++@@$$$$@@$$$$+%%@@@@%%@@@@%%@@@%%++$$$$@@$$$$@@+&&      ",
"      &++@@$$$$@@$$$$+%%@@@@%%@@@@%%@@@%%++$$$$@@$$$$@@+&&      ",
"      &++@@@@@@@@@@@@+%%%%%%%%%%%%%%%%%%%++@@@@@@@@@@@@+&&      ",
"      &++@@@@@@@@@@@@+%%%%%%%%%%%%%%%%%%%++@@@@@@@@@@@@+&&      ",
"      &++%%%%%%%%%%%%%%%%%%%++++++++%%%%%%%%%%%%%%%%%%%+&&      ",
"      &++%%@@@@%%@@@@%@@@@%%++&&&&++%%@@@%%@@@@%%@@@@%%+&&      ",
"      &++%%@@@@%%@@@@%@@@@%%++&&&&++%%@@@%%@@@@%%@@@@%%+&&      ",
"      &++%%@@@@%%@@@@%@@@@%%++&&&&++%%@@@%%@@@@%%@@@@%%+&&      ",
"      &++%%@@@@%%@@@@%@@@@%%++&&&&++%%@@@%%@@@@%%@@@@%%+&&      ",
"      &++%%@@@@%%@@@@%@@@@%%++&&&&++%%@@@%%@@@@%%@@@@%%+&&      ",
"      &++%%@@@@%%@@@@%@@@@%%++&&&&++%%@@@%%@@@@%%@@@@%%+&&      ",
"      &++%%%%%%%%%%%%%%%%%%%++&&&&++%%%%%%%%%%%%%%%%%%%+&&      ",
"      &++%%%%%%%%%%%%%%%%%%%++&&&&++%%%%%%%%%%%%%%%%%%%+&&      ",
"      &+++++++++++++++++++++++&&&&++++++++++++++++++++++&&      ",
"      &+++++++++++++++++++++++&&&&++++++++++++++++++++++&&      ",
"      &&&&&&&&&&&&&&&&&&&&&&&&&&&&&&&&&&&&&&&&&&&&&&&&&&&&      ",
"      &&&&&&&&&&&&&&&&&&&&&&&&&&&&&&&&&&&&&&&&&&&&&&&&&&&&      ",
"                                                                ",
"                                                                ",
"                                                                ",
"                                                                ",
"                                                                ",
"                                                                ",
"                                                                ",
"                                                                ",
"                                                                ",
"                                                                ",
"                                                                "};
