/* XPM */
static char * obstacle_xpm[] = {
"32 32 6 1",
" 	c #918D8D",
".	c #353540",
"+	c #735B42",
"@	c #EDE4DA",
"#	c #7E674C",
"$	c #604B3D",
"                                ",
"                                ",
"                                ",
"                                ",
"                                ",
"                                ",
"          ............          ",
"          .+++++++@@@.          ",
"          .+##+##+##@.          ",
"          .+##+##+##+.          ",
"          .+##+##+##+.          ",
"   ........+##+##+##+........   ",
"   .++++++.+##+##+##+.+++@@@.   ",
"   .+##+##.++++++++++.##+##@.   ",
"   .+##+##.$$$$$$$$$$.##+##+.   ",
"   .+##+##.$++$++$++$.##+##+.   ",
"   .+##+##.$++$++$++$.##+##+.   ",
"   .+##+##.$++$++$++$.##+##+.   ",
"   .++++++.$$$$$$$$$$.++++++.   ",
"   .$$$$$$$$$$....$$$$$$$$$$.   ",
"   .$++$++$++$.  .$++$++$++$.   ",
"   .$++$++$++$.  .$++$++$++$.   ",
"   .$++$++$++$.  .$++$++$++$.   ",
"   .$$$$$$$$$$.  .$$$$$$$$$$.   ",
"   ............  ............   ",
"                                ",
"                                ",
"                                ",
"                                ",
"                                ",
"                                ",
"                                "};
