/* XPM */
static char * p_idle_right_3_xpm[] = {
"64 64 8 1",
" 	c #BFB8B4",
".	c #C5BFBB",
"+	c #E9D8A1",
"@	c #E18D79",
"#	c #833129",
"$	c #DC534B",
"%	c #000000",
"&	c #F5F4EB",
"                                                                ",
"                                                                ",
"      ...                                                       ",
"                                                                ",
"                                                                ",
"                                                                ",
"                                                                ",
"                                                                ",
"                      ++                          ++            ",
"          ...         ++                          ++            ",
"          ...       @@@@++      @@++@@++++      @@@@++          ",
"          ...       @@@@++      @@++@@++++      @@@@++          ",
"                    ##@@@@++  ++@@@@@@@@@@++  @@@@@@##          ",
"                    ##@@@@++  ++@@@@@@@@@@++  @@@@@@##          ",
"                    ####@@@@++@@@@@@@@@@@@@@++@@@@####          ",
"                    ####@@@@++@@@@@@@@@@@@@@++@@@@####          ",
"                      ####@@$$$$$$$$@@@@@@$$$$$$@@##            ",
"                      ####@@$$$$$$$$@@@@@@$$$$$$@@##            ",
"                      $$$$@@@@%%%%$$$$$$$$%%%%@@++              ",
"                      $$$$@@@@%%%%$$$$$$$$%%%%@@++              ",
"                    $$@@@@@@@@&&%%&&@@@@&&%%&&@@@@++            ",
"                    $$@@@@@@@@&&%%&&@@@@&&%%&&@@@@++            ",
"...                 $$@@@@@@@@&&%%&&@@@@&&%%&&@@@@++            ",
"...                 $$@@@@@@@@&&%%&&@@@@&&%%&&@@@@++            ",
"...               $$@@@@@@@@######$$$$$$$$$$######@@++          ",
"                  $$@@@@@@@@######$$$$$$$$$$######@@++          ",
"                  $$@@@@$$$$@@@@$$@@@@@@@@@@$$@@@@$$$$          ",
"                  $$@@@@$$$$@@@@$$@@@@@@@@@@$$@@@@$$$$          ",
"                  $$$$@@$$$$@@$$@@@@%%@@%%@@@@$$@@$$$$          ",
"                  $$$$@@$$$$@@$$@@@@%%@@%%@@@@$$@@$$$$          ",
"                  $$$$@@@@@@@@$$@@@@%%@@%%@@@@$$@@@@++          ",
"                  $$$$@@@@@@@@$$@@@@%%@@%%@@@@$$@@@@++..        ",
"                $$$$$$@@@@@@@@@@++@@@@@@@@@@++@@@@@@++..        ",
"                $$$$$$@@@@@@@@@@++@@@@@@@@@@++@@@@@@++..        ",
"              $$$$$$$$$$@@@@@@@@@@++++++++++@@@@@@@@            ",
"              $$$$$$$$$$@@@@@@@@@@++++++++++@@@@@@@@            ",
"            $$$$@@@@$$$$$$@@@@@@@@@@@@@@@@@@@@@@@@++            ",
"            $$$$@@@@$$$$$$@@@@@@@@@@@@@@@@@@@@@@@@++          ..",
"            $$$$@@@@@@$$$$$$@@@@@@@@@@@@@@@@@@@@@@            ..",
"            $$$$@@@@@@$$$$$$@@@@@@@@@@@@@@@@@@@@@@            ..",
"          $$$$@@@@@@@@@@$$$$$$$$@@@@@@@@@@@@$$$$              ..",
"          $$$$@@@@@@@@@@$$$$$$$$@@@@@@@@@@@@$$$$              ..",
"    ##    $$@@@@@@@@@@@@@@@@$$$$$$$$$$$$$$$$                  ..",
"    ##    $$@@@@@@@@@@@@@@@@$$$$$$$$$$$$$$$$                    ",
"  ##  ##$$$$$$@@@@@@@@++##@@@@@@@@@@@@@@@@@@++++++              ",
"  ##  ##$$$$$$@@@@@@@@++##@@@@@@@@@@@@@@@@@@++++++              ",
"######  $$$$@@@@$$@@@@@@####@@@@@@@@@@@@@@@@@@@@@@##            ",
"######  $$$$@@@@$$@@@@@@####@@@@@@@@@@@@@@@@@@@@@@##            ",
"    ####$$$$@@@@@@$$@@@@####@@@@@@@@@@@@@@@@@@++@@@@##          ",
"    ####$$$$@@@@@@$$@@@@####@@@@@@@@@@@@@@@@@@++@@@@##          ",
"        $$$$$$@@@@@@$$####@@@@@@@@@@@@@@@@@@@@++@@####          ",
"        $$$$$$@@@@@@$$####@@@@@@@@@@@@@@@@@@@@++@@####          ",
"          $$$$@@@@@@@@@@@@@@@@@@@@@@@@@@@@@@@@++####            ",
"          $$$$@@@@@@@@@@@@@@@@@@@@@@@@@@@@@@@@++####            ",
"          $$$$$$@@@@@@@@@@@@@@@@@@$$@@@@@@@@++                  ",
"          $$$$$$@@@@@@@@@@@@@@@@@@$$@@@@@@@@++                  ",
"            $$$$$$$$@@$$@@@@$$@@$$@@$$@@$$$$                    ",
"            $$$$$$$$@@$$@@@@$$@@$$@@$$@@$$$$                    ",
"              $$$$$$$$$$$$$$$$$$$$$$$$$$$$                      ",
"              $$$$$$$$$$$$$$$$$$$$$$$$$$$$                      ",
" ...          ##$$##$$##      ..##$$##$$##            ...       ",
" ..           ##$$##$$##      ..##$$##$$##            ...       ",
" ..             ######        ... ######              ...       ",
"                ######            ######                        "};
