/* XPM */
static char * pig_left_xpm[] = {
"32 32 8 1",
" 	c #7D6812",
".	c #816C17",
"+	c #E9D8A1",
"@	c #E18D79",
"#	c #833129",
"$	c #DC534B",
"%	c #000000",
"&	c #F5F4EB",
" .             .  . .           ",
"     .  ..     .                ",
"              . ..    .  ..  .  ",
"                     .    .     ",
"   .        . . ..   .    . ..  ",
"      +   . .   .   +          .",
"     +@@ . ++@+@   +@@   .      ",
"     #@@@ +@@@@@+ +@@#     . .  ",
"  .  ##@@+@@@@@@@+@@##       .  ",
"   .  #@$$$@@@$$$$@##  .        ",
".      +@%%$$$$%%@@$$     .     ",
" .    +@@&%&@@&%&@@@@$          ",
"      +@@&%&@@&%&@@@@$ ...    . ",
" . . +@###$$$$$###@@@@$        .",
"     $$@@$@@@@@$@@$$@@$        .",
"     $$@$@@%@%@@$@$$@$$ .       ",
"    .+@@$@@%@%@@$@@@@$$$        ",
"     +@@@+@@@@@+@@@@@$$$$       ",
"      @@@@+++++@@@@@$$$@$$      ",
"      +@@@@@@@@@@@@$$$@@$$      ",
"       @@@@@@@@@@@$$$@@$@$$  .  ",
"        $$@@@@@@$$$$@@@@@@$  # .",
"     .   @$$$$$$$$@@@@@@@$$$# #.",
".    . ++@@@@@@@@@@#+@@@@@$$ ###",
"      #@+@@@@@@@@@##@@@$@@$$##  ",
"    .#@@+@@@@@@@@@##@@$@@@@$    ",
"     ##@+@@@@@@@@@@##$@@@$$. .  ",
"      ##$+@@@@$@@@@@@@@@$$$.    ",
"          $$@$@$@$@@$@$$$$   .. ",
"     .     $$$$$$$$$$$$$$       ",
"             ###    #$#$#       ",
"       .           . ###     ..."};
