/* XPM */
static char * left_pig_xpm[] = {
"32 32 8 1",
" 	c #BFB8B4",
".	c #918D8D",
"+	c #E9D8A1",
"@	c #E18D79",
"#	c #833129",
"$	c #DC534B",
"%	c #000000",
"&	c #F5F4EB",
"           .         .          ",
"           .         .          ",
"           .         .          ",
"           .         .          ",
"           .         .          ",
"......+.............+...........",
" .   +@@   ++@+@   +@@   .    . ",
" .   #@@@ +@@@@@+ +@@#   .    . ",
" .   ##@@+@@@@@@@+@@##   .    . ",
" .    #@$$$@@@$$$$@##    .    . ",
" .    .+@%%$$$$%%@@$$    .    . ",
" .    +@@&%&@@&%&@@@@$   .    . ",
" .    +@@&%&@@&%&@@@@$   .    . ",
" .   +@###$$$$$###@@@@$  .    . ",
" .   $$@@$@@@@@$@@$$@@$  .    . ",
" .   $$@$@@%@%@@$@$$@$$  .    . ",
" .   +@@$@@%@%@@$@@@@$$$ .    . ",
" .   +@@@+@@@@@+@@@@@$$$$.    . ",
" .    @@@@+++++@@@@@$$$@$$    . ",
" .    +@@@@@@@@@@@@$$$@@$$    . ",
" .    .@@@@@@@@@@@$$$@@$@$$   . ",
" .    . $$@@@@@@$$$$@@@@@@$  #. ",
" .    .  @$$$$$$$$@@@@@@@$$$# # ",
" .    .++@@@@@@@@@@#+@@@@@$$ ###",
" .    #@+@@@@@@@@@##@@@$@@$$##. ",
" .   #@@+@@@@@@@@@##@@$@@@@$  . ",
".....##@+@@@@@@@@@@##$@@@$$.....",
"      ##$+@@@@$@@@@@@@@@$$$     ",
"        . $$@$@$@$@@$@$$$$      ",
"        .  $$$$$$$$$$$$$$.      ",
"        .    ###.   #$#$#.      ",
".....................###........"};
