/* XPM */
static char * pig_vierge_left_xpm[] = {
"32 32 7 1",
" 	c None",
".	c #E9D8A1",
"+	c #E18D79",
"@	c #833129",
"#	c #DC534B",
"$	c #000000",
"%	c #F5F4EB",
"                                ",
"                                ",
"                                ",
"                                ",
"                                ",
"      .             .           ",
"     .++   ..+.+   .++          ",
"     @+++ .+++++. .++@          ",
"     @@++.+++++++.++@@          ",
"      @+###+++####+@@           ",
"       .+$$####$$++##           ",
"      .++%$%++%$%++++#          ",
"      .++%$%++%$%++++#          ",
"     .+@@@#####@@@++++#         ",
"     ##++#+++++#++##++#         ",
"     ##+#++$+$++#+##+##         ",
"     .++#++$+$++#++++###        ",
"     .+++.+++++.+++++####       ",
"      ++++.....+++++###+##      ",
"      .++++++++++++###++##      ",
"       +++++++++++###++#+##     ",
"        ##++++++####++++++#  @  ",
"          ########+++++++###@ @ ",
"       ..++++++++++@.+++++## @@@",
"      @+.+++++++++@@+++#++##@@  ",
"     @++.+++++++++@@++#++###    ",
"     @@+.++++++++++@@#+++##     ",
"      @@#.++++#+++++++++###     ",
"          ##+#+#+#++#+####      ",
"           ##############       ",
"           @#@#@    @#@#@       ",
"            @@@      @@@        "};
