/* XPM */
static char * top_left_corner_xpm[] = {
"32 32 6 1",
" 	c None",
".	c #353540",
"+	c #BFB8B4",
"@	c #EDE4DA",
"#	c #918D8D",
"$	c #636167",
"...............        .........",
".++++++.+++@@@.        .++++++.+",
".++++++#+++++@.        .++++++#+",
".++++++#++++++..........++++++#+",
".++++++#++++++.++++++++.++++++#+",
".++++##$######.++++++++.######$#",
".++++##$######.++++++++.######$#",
".####$$$$$$$$$.++++++++.$$$$$$$$",
".++++####$##################$###",
".++++####$##################$###",
".++++$$$$$$$$$$$$$$$$$$$$$$$$$$$",
".++++##$######$########$######$#",
".++++##$######$########$######$#",
".++++$$$$$$$$$$$$$$$$$$$$$$$$$$$",
".########$######$####$######$###",
".++++####$######$####$######$###",
".++++$$$$$$$$$$$$$$$$$$$$$$$$$$$",
".++++.                          ",
".++++.                          ",
".++++.                          ",
".++++.                          ",
".++++.                          ",
".++++.                          ",
".####.                          ",
".####.                          ",
".$$$$.                          ",
".++++.                          ",
".++++.                          ",
".++++.                          ",
".++++.                          ",
".++++.                          ",
".+@@@.                          "};
