/* XPM */
static char * top_right_corner_xpm[] = {
"32 32 27 1",
" 	c #40264D",
".	c #7A7290",
"+	c #413D4F",
"@	c #58526A",
"#	c #62526A",
"$	c #473751",
"%	c #877193",
"&	c #5F4F67",
"*	c #3D244B",
"=	c #45354E",
"-	c #5B4D63",
";	c #3B2248",
">	c #7E698B",
",	c #43334C",
"'	c #362042",
")	c #766284",
"!	c #55465B",
"~	c #382B40",
"{	c #311C3D",
"]	c #4E4155",
"^	c #6D5A7D",
"/	c #473C4D",
"(	c #2C1937",
"_	c #33273A",
":	c #5B4B6E",
"<	c #2E2235",
"[	c #413546",
"                                ",
"...+......+.....+......+......  ",
"@@@+@@@@@@+@@@@@+@@@@@@+@@@@@.. ",
"@@@+@@@@@@+@@@@@+@@@@@@+@@@@@@. ",
"@@@+@@@@@@+@@@@@+@@@@@@+@@@@@@. ",
"+++++++++++++++++++++++++++@@@. ",
"###### ###### ###### #####+@@@. ",
"$$$$$$ ###### ###### $$$$$+@@@. ",
"                          +++++ ",
"%%% ###### %%%%%% ###### %+@@@. ",
"### ###### ###### ###### #+@@@. ",
"$$$ ###### $$$$$$ ###### #+@@@. ",
"                          +@@@. ",
"###### ###### %%%%%% %%%%%+@@@. ",
"&&&&&&*&&&&&&*&&&&&&*&&&&&+@@@. ",
"&&&&&&*======*&&&&&&*=====+++++ ",
"**************************+@@@. ",
"---;>>>>>>;>>>>>>;>>>>>>;-+@@@. ",
"---;------;------;------;-+@@@. ",
"---;,,,,,,;------;------;,+@@@. ",
"''''''''''''''''''''''''''+@@@. ",
"))))))'!!!!!!'))))))'!!!!!+@@@. ",
"!!!!!!'!!!!!!'!!!!!!'!!!!!+++++ ",
"~~~~~~{]]]]]]{~~~~~~{]]]]]+@@@. ",
"{{{{{{{{{{{{{{{{{{{{{{{{{{+@@@. ",
"]]]{^^^^^^{]]]]]]{^^^^^^{]+@@@. ",
"///(//////(//////(//////(/+@@@. ",
"___(//////(______(//////(/+@@@. ",
"((((((((((((((((((((((((((+++++ ",
"::::::<::::::<::::::<:::::+@@@. ",
"[[[[[[<[[[[[[<[[[[[[<[[[[[+@@@. ",
"<<<<<<<<<<<<<<<<<<<<<<<<<<+@@@. "};
