/* XPM */
static char * enemy_1_xpm[] = {
"64 64 8 1",
" 	c #BFB8B4",
".	c #000000",
"+	c #422433",
"@	c #C5BFBB",
"#	c #824C45",
"$	c #C98D54",
"%	c #FFFFFF",
"&	c #E9CA86",
"                ...+++                   ++++...                ",
"                ...+++                   ++++...                ",
"      @@@       ...+++                   ++++...                ",
"                ...###+++             +++####...                ",
"                ...###+++             +++####...                ",
"                ...###+++             +++####...                ",
"                ...###+++             +++####...                ",
"                ...$$$###++++......+++###$$$$...                ",
"                ...$$$###++++......+++###$$$$...                ",
"          @@@   ...$$$###++++......+++###$$$$...                ",
"          @@@   ...+++$$$#############$$$++++...                ",
"          @@@   ...+++$$$#############$$$++++...                ",
"                ...+++$$$#############$$$++++...                ",
"                ...###+++#############+++####...                ",
"                ...###+++#############+++####...                ",
"                ...###+++#############+++####...                ",
"                ...+++$$$$$$$######$$$$$$++++...                ",
"                ...+++$$$$$$$######$$$$$$++++...@               ",
"                ...+++$$$$$$$######$$$$$$++++...@               ",
"             +++###$$$+++++++$$$$$$++++++$$$$###+++             ",
"             +++###$$$+++++++$$$$$$++++++$$$$###+++             ",
"             +++###$$$+++++++$$$$$$++++++$$$$###+++             ",
"@@@          ......###%%%....&&&$$$...%%%####......             ",
"@@@          ......###%%%....&&&$$$...%%%####......             ",
"@@@          ......###%%%....&&&$$$...%%%####......             ",
"             ......###%%%....&&&$$$...%%%####......             ",
"                ......###$$$$&&&&&&$$$###.......++++++          ",
"                ......###$$$$&&&&&&$$$###.......++++++          ",
"                ......###$$$$&&&&&&$$$###.......++++++          ",
"             ...+++###...$$$$......$$$...####+++...+++          ",
"             ...+++###...$$$$......$$$...####+++...+++          ",
"             ...+++###...$$$$......$$$...####+++...+++@@        ",
"             +++#########....++++++...##########+++...@@        ",
"             +++#########....++++++...##########+++...@@        ",
"             +++#########....++++++...##########+++...          ",
"             ...###$$$###################$$$$###...             ",
"             ...###$$$###################$$$$###...             ",
"             ...###$$$###################$$$$###...           @@",
"             ...+++$$$+++#############+++$$$$+++...           @@",
"             ...+++$$$+++#############+++$$$$+++...           @@",
"             ...+++$$$+++#############+++$$$$+++...           @@",
"                +++$$$###+++++++++++++###$$$$+++              @@",
"                +++$$$###+++++++++++++###$$$$+++              @@",
"                +++$$$###+++++++++++++###$$$$+++                ",
"                +++$$$###+++++++++++++###$$$$+++                ",
"             +++...+++$$$....++++++...$$$++++...+++             ",
"             +++...+++$$$....++++++...$$$++++...+++             ",
"             +++...+++$$$....++++++...$$$++++...+++             ",
"             .........$$$++++......+++$$$..........             ",
"             .........$$$++++......+++$$$..........             ",
"             .........$$$++++......+++$$$..........             ",
"                ...+++$$$.............$$$++++...                ",
"                ...+++$$$.............$$$++++...                ",
"                ...+++$$$.............$$$++++...                ",
"                +++&&&&&&....      ...&&&&&&&+++                ",
"                +++&&&&&&....      ...&&&&&&&+++                ",
"                +++&&&&&&....      ...&&&&&&&+++                ",
"                ...###+++++++      ++++++####...                ",
"                ...###+++++++      ++++++####...                ",
"                ...###+++++++      ++++++####...                ",
" @@@            ...###+++++++ @@@  ++++++####...      @@@       ",
" @@                           @@@                     @@@       ",
" @@                           @@@                     @@@       ",
"                                                                "};
