/* XPM */
static char * enemy_3_xpm[] = {
"64 64 19 1",
" 	c None",
".	c #050403",
"+	c #4F342F",
"@	c #C68556",
"#	c #8C5B3E",
"$	c #0E0C0C",
"%	c #BDA499",
"&	c #333C24",
"*	c #DDCEBF",
"=	c #FFFFFF",
"-	c #ECEBE7",
";	c #612721",
">	c #CBC6C1",
",	c #A69E9A",
"'	c #C91C1C",
")	c #791414",
"!	c #F8C53A",
"~	c #452A1B",
"{	c #724B2C",
"                                                                ",
"                                                                ",
"                                                                ",
"                                                                ",
"                                                                ",
"                                                                ",
"                      ....              ...                     ",
"                      ....              ...                     ",
"                      ..++.           ..+..                     ",
"                      ..++@..        .@@+..                     ",
"                      ..++@..        .@@+..                     ",
"                      ..##@@@...   ..@@@#..                     ",
"                      ..##@@@...   ..@@@#..                     ",
"                      ..##@@@###........#..                     ",
"                      ..##@#####+##$$###%..        .....        ",
"                      ..##@#####+##$$###%..        .....        ",
"                        ..######$$$$$#%%&....... ..**###.       ",
"      .......   ..... ....####$$$$$###==&..-----.............   ",
"      .......   ..... ....####$$$$$###==&..-----.............   ",
"     .-------...-----.--..+##$$$###;;;;;###..>..+++##+++#++++.  ",
"     .-------...-----.--..+##$$$###;;;;;###..>..+++##+++#++++.  ",
"   ..>>>>>>>>>>>>>>>>>>>..$$$$###++**;**+##..,.............''.  ",
"  .,,,,,,,,,,,,,,,,,,,,,,,.++###+**++%++*++...   ..+++###..)).  ",
"  .,,,,,,,,,,,,,,,,,,,,,,,.++###+**++%++*++...   ..+++###..)).  ",
"..........................#.....*++%%*%%+.....   ..######..''.  ",
"                     .@@########...***%%.#####.....######....)..",
"                     .@@########...***%%.#####.....######....)..",
"                   ..@++#####@@@###..%..#########..#####.  ..)..",
"                   ..@++#####@@@###..%..#########..#####.  ..)..",
"                  .@@###++#@@####  ..!..#########..#####...)).  ",
"                  .@@#####.++####..%%.#####..###.#####++.....   ",
"                  .@@#####.++####..%%.#####..###.#####++.....   ",
"                  .++#####.++####..!!.#####...##.+++++..        ",
"                  .++#####.++####..!!.#####...##.+++++..        ",
"                ...++###..++++###++..+###++.. ..######..        ",
"                ..@+++....+++++++#####+++++..   ......          ",
"                ..@+++....+++++++#####+++++..   ......          ",
"              ....@##.  ..+++######++######..                   ",
"              ....@##.  ..+++++++##++#+++++..                   ",
"              ....@##.  ..+++++++##++#+++++..                   ",
"              ..#####.    ......###++####..                     ",
"              ..#####.    ......###++####..                     ",
"              ..##+++#..  .~~~~~...........                     ",
"              ..++####**...~~~~~~-->>>~~~..                     ",
"              ..++####**...~~~~~~-->>>~~~..                     ",
"              ..######!!...~~{{{~>>>>,~~~..                     ",
"                ..###*.....~~{{{{{{{{{{{{{{..                   ",
"                ..###*.....~~{{{{{{{{{{{{{{..                   ",
"                  ....####.~~{{{{{{{{{{{{{{..                   ",
"                  ....####.~~{{{{{{{{{{{{{{..                   ",
"                   .......~{{{{{......~~{{{{{.                  ",
"                        ..~{{{..      ..~{{{{.                  ",
"                        ..~{{{..      ..~{{{{.                  ",
"                        ..~{{{..      ..~{{{{.                  ",
"                        ..~{{{..      ..~{{{{.                  ",
"                        ..~{{{..      ..~{{{{.                  ",
"                      ..~~{{{.        ..~.....                  ",
"                      ..~~{{{.        ..~.....                  ",
"                      ........        ...##@@.                  ",
"                      ..@@@@@.        ..###@@@..                ",
"                      ..@@@@@.        ..###@@@..                ",
"                      ..##*##.          .####*@@.               ",
"                      ..*****.          .##*****.               ",
"                      ..*****.          .##*****.               "};
