/* XPM */
static char * tomb_xpm[] = {
"64 64 5 1",
" 	c #BFB8B4",
".	c #C5BFBB",
"+	c #000000",
"@	c #666666",
"#	c #B5B5B5",
"                                                                ",
"                                                                ",
"      ...                                                       ",
"                          +++++++++                             ",
"                       +++@@@@@@@@@+++                          ",
"                    +++@@@@#######@@@@+++                       ",
"                    +++@@@@#######@@@@+++                       ",
"                   +@@@@@############@@@@+                      ",
"                  +@@@@################@@@++                    ",
"          ...   ++@@@@###################@@@+                   ",
"          ...   ++@@@@###################@@@+                   ",
"          ...   ++@@######################@@+                   ",
"               +@@@@######################@@@+                  ",
"               +@@@@######################@@@+                  ",
"               +@@@#########################@+                  ",
"               +@@##########################@+                  ",
"              +@@@###########################@++                ",
"              +@@@###########################@++.               ",
"              +@@@###########################@++.               ",
"            ++@@################################+               ",
"            ++@@################################+               ",
"            ++@@################################+               ",
"...         ++@@################################+               ",
"...         ++@@##+++++######++++++###++++++####+               ",
"...         ++@@##+####++######++#####+#####+###+               ",
"            ++@@##+####++######++#####+#####+###+               ",
"            ++@@##+####++######++#####+#####+###+               ",
"            ++@@##+####++######++#####+#####+###+               ",
"            ++@@##+####++######++#####+#####+###+               ",
"            ++@@##+####++######++#####+#####+###+               ",
"            ++@@##+++++########++#####++++++####+               ",
"            ++@@##+###+########++#####+#########+    ...        ",
"            ++@@##+####++######++#####+#########+    ...        ",
"            ++@@##+####++######++#####+#########+    ...        ",
"            ++@@##+####++######++#####+#########+               ",
"            ++@@##+######+#####++#####+#########+               ",
"            ++@@##+######+#####++#####+#########+               ",
"            ++@@##+######+###++++++###+#########+             ..",
"            ++@@################################+             ..",
"            ++@@################################+             ..",
"            ++@@################################+             ..",
"            ++@@################################+             ..",
"            ++@@################################+             ..",
"            ++@@################################+               ",
"            ++@@################################+               ",
"            ++@@################################+               ",
"            ++@@################################+               ",
"            ++@@@@##############################+               ",
"            ++@@@@##############################+               ",
"            ++@@@@@@############################+               ",
"          ++++++++++++++++++++++++++++++++++++++++++            ",
"        ++@@########################################+           ",
"        ++@@########################################+           ",
"        ++@@@@######################################+           ",
"        ++@@@@@@@@@@@@@@@@@@@@@@@@@@@@@@@@@@@@######+           ",
"        ++@@@@@@@@@@@@@@@@@@@@@@@@@@@@@@@@@@@@######+           ",
"          ++++++++++++++++++++++++++++++++++++++++++            ",
"                                                                ",
"                                                                ",
"                                                                ",
" ...                          ...                     ...       ",
" ..                           ...                     ...       ",
" ..                           ...                     ...       ",
"                                                                "};
