/* XPM */
static char * \d_white_xpm[] = {
"6 7 2 1",
" 	c None",
".	c #FFFFFF",
" ...  ",
" .  . ",
" .  . ",
" .  . ",
" .  . ",
" .  . ",
" ...  "};
