/* XPM */
static char * a_white_xpm[] = {
"85 100 2 1",
" 	c None",
".	c #FFFFFF",
"                            .............................                            ",
"                            .............................                            ",
"                            .............................                            ",
"                            .............................                            ",
"                            .............................                            ",
"                            .............................                            ",
"                            .............................                            ",
"                            .............................                            ",
"                            .............................                            ",
"                            .............................                            ",
"                            .............................                            ",
"                            .............................                            ",
"                            .............................                            ",
"                            .............................                            ",
"                            .............................                            ",
"              ..............                             ..............              ",
"              ..............                             ..............              ",
"              ..............                             ..............              ",
"              ..............                             ..............              ",
"              ..............                             ..............              ",
"              ..............                             ..............              ",
"              ..............                             ..............              ",
"              ..............                             ..............              ",
"              ..............                             ..............              ",
"              ..............                             ..............              ",
"              ..............                             ..............              ",
"              ..............                             ..............              ",
"              ..............                             ..............              ",
"              ..............                             ..............              ",
"              ..............                             ..............              ",
"              ..............                             ..............              ",
"              ..............                             ..............              ",
"              ..............                             ..............              ",
"              ..............                             ..............              ",
"              ..............                             ..............              ",
"              ..............                             ..............              ",
"              ..............                             ..............              ",
"              ..............                             ..............              ",
"              ..............                             ..............              ",
"              ..............                             ..............              ",
"              ..............                             ..............              ",
"              ..............                             ..............              ",
"              ..............                             ..............              ",
"              .........................................................              ",
"              .........................................................              ",
"              .........................................................              ",
"              .........................................................              ",
"              .........................................................              ",
"              .........................................................              ",
"              .........................................................              ",
"              .........................................................              ",
"              .........................................................              ",
"              .........................................................              ",
"              .........................................................              ",
"              .........................................................              ",
"              .........................................................              ",
"              .........................................................              ",
"              ..............                             ..............              ",
"              ..............                             ..............              ",
"              ..............                             ..............              ",
"              ..............                             ..............              ",
"              ..............                             ..............              ",
"              ..............                             ..............              ",
"              ..............                             ..............              ",
"              ..............                             ..............              ",
"              ..............                             ..............              ",
"              ..............                             ..............              ",
"              ..............                             ..............              ",
"              ..............                             ..............              ",
"              ..............                             ..............              ",
"              ..............                             ..............              ",
"              ..............                             ..............              ",
"              ..............                             ..............              ",
"              ..............                             ..............              ",
"              ..............                             ..............              ",
"              ..............                             ..............              ",
"              ..............                             ..............              ",
"              ..............                             ..............              ",
"              ..............                             ..............              ",
"              ..............                             ..............              ",
"              ..............                             ..............              ",
"              ..............                             ..............              ",
"              ..............                             ..............              ",
"              ..............                             ..............              ",
"              ..............                             ..............              ",
"              ..............                             ..............              ",
"              ..............                             ..............              ",
"              ..............                             ..............              ",
"              ..............                             ..............              ",
"              ..............                             ..............              ",
"              ..............                             ..............              ",
"              ..............                             ..............              ",
"              ..............                             ..............              ",
"              ..............                             ..............              ",
"              ..............                             ..............              ",
"              ..............                             ..............              ",
"              ..............                             ..............              ",
"              ..............                             ..............              ",
"              ..............                             ..............              ",
"              ..............                             ..............              "};
