/* XPM */
static char * d_white_xpm[] = {
"86 100 2 1",
" 	c None",
".	c #FFFFFF",
"              ...........................................                             ",
"              ...........................................                             ",
"              ...........................................                             ",
"              ...........................................                             ",
"              ...........................................                             ",
"              ...........................................                             ",
"              ...........................................                             ",
"              ...........................................                             ",
"              ...........................................                             ",
"              ...........................................                             ",
"              ...........................................                             ",
"              ...........................................                             ",
"              ...........................................                             ",
"              ...........................................                             ",
"              ...............                            ...............              ",
"              ...............                            ...............              ",
"              ...............                            ...............              ",
"              ...............                            ...............              ",
"              ...............                            ...............              ",
"              ...............                            ...............              ",
"              ...............                            ...............              ",
"              ...............                            ...............              ",
"              ...............                            ...............              ",
"              ...............                            ...............              ",
"              ...............                            ...............              ",
"              ...............                            ...............              ",
"              ...............                            ...............              ",
"              ...............                            ...............              ",
"              ...............                            ...............              ",
"              ...............                            ...............              ",
"              ...............                            ...............              ",
"              ...............                            ...............              ",
"              ...............                            ...............              ",
"              ...............                            ...............              ",
"              ...............                            ...............              ",
"              ...............                            ...............              ",
"              ...............                            ...............              ",
"              ...............                            ...............              ",
"              ...............                            ...............              ",
"              ...............                            ...............              ",
"              ...............                            ...............              ",
"              ...............                            ...............              ",
"              ...............                            ...............              ",
"              ...............                            ...............              ",
"              ...............                            ...............              ",
"              ...............                            ...............              ",
"              ...............                            ...............              ",
"              ...............                            ...............              ",
"              ...............                            ...............              ",
"              ...............                            ...............              ",
"              ...............                            ...............              ",
"              ...............                            ...............              ",
"              ...............                            ...............              ",
"              ...............                            ...............              ",
"              ...............                            ...............              ",
"              ...............                            ...............              ",
"              ...............                            ...............              ",
"              ...............                            ...............              ",
"              ...............                            ...............              ",
"              ...............                            ...............              ",
"              ...............                            ...............              ",
"              ...............                            ...............              ",
"              ...............                            ...............              ",
"              ...............                            ...............              ",
"              ...............                            ...............              ",
"              ...............                            ...............              ",
"              ...............                            ...............              ",
"              ...............                            ...............              ",
"              ...............                            ...............              ",
"              ...............                            ...............              ",
"              ...............                            ...............              ",
"              ...............                            ...............              ",
"              ...............                            ...............              ",
"              ...............                            ...............              ",
"              ...............                            ...............              ",
"              ...............                            ...............              ",
"              ...............                            ...............              ",
"              ...............                            ...............              ",
"              ...............                            ...............              ",
"              ...............                            ...............              ",
"              ...............                            ...............              ",
"              ...............                            ...............              ",
"              ...............                            ...............              ",
"              ...............                            ...............              ",
"              ...............                            ...............              ",
"              ...............                            ...............              ",
"              ...........................................                             ",
"              ...........................................                             ",
"              ...........................................                             ",
"              ...........................................                             ",
"              ...........................................                             ",
"              ...........................................                             ",
"              ...........................................                             ",
"              ...........................................                             ",
"              ...........................................                             ",
"              ...........................................                             ",
"              ...........................................                             ",
"              ...........................................                             ",
"              ...........................................                             ",
"              ...........................................                             "};
