/* XPM */
static char * e_xpm[] = {
"6 7 2 1",
" 	c None",
".	c #000000",
"  ... ",
" .    ",
" .    ",
" ...  ",
" .    ",
" .    ",
"  ... "};
