/* XPM */
static char * i_xpm[] = {
"43 100 2 1",
" 	c None",
".	c #000000",
"              ...............              ",
"              ...............              ",
"              ...............              ",
"              ...............              ",
"              ...............              ",
"              ...............              ",
"              ...............              ",
"              ...............              ",
"              ...............              ",
"              ...............              ",
"              ...............              ",
"              ...............              ",
"              ...............              ",
"              ...............              ",
"              ...............              ",
"              ...............              ",
"              ...............              ",
"              ...............              ",
"              ...............              ",
"              ...............              ",
"              ...............              ",
"              ...............              ",
"              ...............              ",
"              ...............              ",
"              ...............              ",
"              ...............              ",
"              ...............              ",
"              ...............              ",
"              ...............              ",
"              ...............              ",
"              ...............              ",
"              ...............              ",
"              ...............              ",
"              ...............              ",
"              ...............              ",
"              ...............              ",
"              ...............              ",
"              ...............              ",
"              ...............              ",
"              ...............              ",
"              ...............              ",
"              ...............              ",
"              ...............              ",
"              ...............              ",
"              ...............              ",
"              ...............              ",
"              ...............              ",
"              ...............              ",
"              ...............              ",
"              ...............              ",
"              ...............              ",
"              ...............              ",
"              ...............              ",
"              ...............              ",
"              ...............              ",
"              ...............              ",
"              ...............              ",
"              ...............              ",
"              ...............              ",
"              ...............              ",
"              ...............              ",
"              ...............              ",
"              ...............              ",
"              ...............              ",
"              ...............              ",
"              ...............              ",
"              ...............              ",
"              ...............              ",
"              ...............              ",
"              ...............              ",
"              ...............              ",
"              ...............              ",
"              ...............              ",
"              ...............              ",
"              ...............              ",
"              ...............              ",
"              ...............              ",
"              ...............              ",
"              ...............              ",
"              ...............              ",
"              ...............              ",
"              ...............              ",
"              ...............              ",
"              ...............              ",
"              ...............              ",
"              ...............              ",
"              ...............              ",
"              ...............              ",
"              ...............              ",
"              ...............              ",
"              ...............              ",
"              ...............              ",
"              ...............              ",
"              ...............              ",
"              ...............              ",
"              ...............              ",
"              ...............              ",
"              ...............              ",
"              ...............              ",
"              ...............              "};
