/* XPM */
static char * i_xpm[] = {
"3 7 2 1",
" 	c None",
".	c #000000",
" . ",
" . ",
" . ",
" . ",
" . ",
" . ",
" . "};
