/* XPM */
static char * n_xpm[] = {
"6 7 2 1",
" 	c None",
".	c #000000",
" .  . ",
" .  . ",
" .. . ",
" . .. ",
" .  . ",
" .  . ",
" .  . "};
