/* XPM */
static char * n_xpm[] = {
"86 100 2 1",
" 	c None",
".	c #000000",
"              ...............                            ...............              ",
"              ...............                            ...............              ",
"              ...............                            ...............              ",
"              ...............                            ...............              ",
"              ...............                            ...............              ",
"              ...............                            ...............              ",
"              ...............                            ...............              ",
"              ...............                            ...............              ",
"              ...............                            ...............              ",
"              ...............                            ...............              ",
"              ...............                            ...............              ",
"              ...............                            ...............              ",
"              ...............                            ...............              ",
"              ...............                            ...............              ",
"              ...............                            ...............              ",
"              ...............                            ...............              ",
"              ...............                            ...............              ",
"              ...............                            ...............              ",
"              ...............                            ...............              ",
"              ...............                            ...............              ",
"              ...............                            ...............              ",
"              ...............                            ...............              ",
"              ...............                            ...............              ",
"              ...............                            ...............              ",
"              ...............                            ...............              ",
"              ...............                            ...............              ",
"              ...............                            ...............              ",
"              ...............                            ...............              ",
"              ...............                            ...............              ",
"              .............................              ...............              ",
"              .............................              ...............              ",
"              .............................              ...............              ",
"              .............................              ...............              ",
"              .............................              ...............              ",
"              .............................              ...............              ",
"              .............................              ...............              ",
"              .............................              ...............              ",
"              .............................              ...............              ",
"              .............................              ...............              ",
"              .............................              ...............              ",
"              .............................              ...............              ",
"              .............................              ...............              ",
"              .............................              ...............              ",
"              ...............              .............................              ",
"              ...............              .............................              ",
"              ...............              .............................              ",
"              ...............              .............................              ",
"              ...............              .............................              ",
"              ...............              .............................              ",
"              ...............              .............................              ",
"              ...............              .............................              ",
"              ...............              .............................              ",
"              ...............              .............................              ",
"              ...............              .............................              ",
"              ...............              .............................              ",
"              ...............              .............................              ",
"              ...............              .............................              ",
"              ...............                            ...............              ",
"              ...............                            ...............              ",
"              ...............                            ...............              ",
"              ...............                            ...............              ",
"              ...............                            ...............              ",
"              ...............                            ...............              ",
"              ...............                            ...............              ",
"              ...............                            ...............              ",
"              ...............                            ...............              ",
"              ...............                            ...............              ",
"              ...............                            ...............              ",
"              ...............                            ...............              ",
"              ...............                            ...............              ",
"              ...............                            ...............              ",
"              ...............                            ...............              ",
"              ...............                            ...............              ",
"              ...............                            ...............              ",
"              ...............                            ...............              ",
"              ...............                            ...............              ",
"              ...............                            ...............              ",
"              ...............                            ...............              ",
"              ...............                            ...............              ",
"              ...............                            ...............              ",
"              ...............                            ...............              ",
"              ...............                            ...............              ",
"              ...............                            ...............              ",
"              ...............                            ...............              ",
"              ...............                            ...............              ",
"              ...............                            ...............              ",
"              ...............                            ...............              ",
"              ...............                            ...............              ",
"              ...............                            ...............              ",
"              ...............                            ...............              ",
"              ...............                            ...............              ",
"              ...............                            ...............              ",
"              ...............                            ...............              ",
"              ...............                            ...............              ",
"              ...............                            ...............              ",
"              ...............                            ...............              ",
"              ...............                            ...............              ",
"              ...............                            ...............              ",
"              ...............                            ...............              ",
"              ...............                            ...............              "};
