/* XPM */
static char * t_xpm[] = {
"5 7 2 1",
" 	c None",
".	c #000000",
" ... ",
"  .  ",
"  .  ",
"  .  ",
"  .  ",
"  .  ",
"  .  "};
