/* XPM */
static char * t_white_xpm[] = {
"71 100 2 1",
" 	c None",
".	c #FFFFFF",
"              ...........................................              ",
"              ...........................................              ",
"              ...........................................              ",
"              ...........................................              ",
"              ...........................................              ",
"              ...........................................              ",
"              ...........................................              ",
"              ...........................................              ",
"              ...........................................              ",
"              ...........................................              ",
"              ...........................................              ",
"              ...........................................              ",
"              ...........................................              ",
"              ...........................................              ",
"                            ...............                            ",
"                            ...............                            ",
"                            ...............                            ",
"                            ...............                            ",
"                            ...............                            ",
"                            ...............                            ",
"                            ...............                            ",
"                            ...............                            ",
"                            ...............                            ",
"                            ...............                            ",
"                            ...............                            ",
"                            ...............                            ",
"                            ...............                            ",
"                            ...............                            ",
"                            ...............                            ",
"                            ...............                            ",
"                            ...............                            ",
"                            ...............                            ",
"                            ...............                            ",
"                            ...............                            ",
"                            ...............                            ",
"                            ...............                            ",
"                            ...............                            ",
"                            ...............                            ",
"                            ...............                            ",
"                            ...............                            ",
"                            ...............                            ",
"                            ...............                            ",
"                            ...............                            ",
"                            ...............                            ",
"                            ...............                            ",
"                            ...............                            ",
"                            ...............                            ",
"                            ...............                            ",
"                            ...............                            ",
"                            ...............                            ",
"                            ...............                            ",
"                            ...............                            ",
"                            ...............                            ",
"                            ...............                            ",
"                            ...............                            ",
"                            ...............                            ",
"                            ...............                            ",
"                            ...............                            ",
"                            ...............                            ",
"                            ...............                            ",
"                            ...............                            ",
"                            ...............                            ",
"                            ...............                            ",
"                            ...............                            ",
"                            ...............                            ",
"                            ...............                            ",
"                            ...............                            ",
"                            ...............                            ",
"                            ...............                            ",
"                            ...............                            ",
"                            ...............                            ",
"                            ...............                            ",
"                            ...............                            ",
"                            ...............                            ",
"                            ...............                            ",
"                            ...............                            ",
"                            ...............                            ",
"                            ...............                            ",
"                            ...............                            ",
"                            ...............                            ",
"                            ...............                            ",
"                            ...............                            ",
"                            ...............                            ",
"                            ...............                            ",
"                            ...............                            ",
"                            ...............                            ",
"                            ...............                            ",
"                            ...............                            ",
"                            ...............                            ",
"                            ...............                            ",
"                            ...............                            ",
"                            ...............                            ",
"                            ...............                            ",
"                            ...............                            ",
"                            ...............                            ",
"                            ...............                            ",
"                            ...............                            ",
"                            ...............                            ",
"                            ...............                            ",
"                            ...............                            "};
