/* XPM */
static char * w_xpm[] = {
"7 7 2 1",
" 	c None",
".	c #000000",
" .   . ",
" .   . ",
" . . . ",
" . . . ",
" . . . ",
" . . . ",
"  . .  "};
