/* XPM */
static char * w_white_xpm[] = {
"100 100 2 1",
" 	c None",
".	c #FFFFFF",
"              ...............                                          ...............              ",
"              ...............                                          ...............              ",
"              ...............                                          ...............              ",
"              ...............                                          ...............              ",
"              ...............                                          ...............              ",
"              ...............                                          ...............              ",
"              ...............                                          ...............              ",
"              ...............                                          ...............              ",
"              ...............                                          ...............              ",
"              ...............                                          ...............              ",
"              ...............                                          ...............              ",
"              ...............                                          ...............              ",
"              ...............                                          ...............              ",
"              ...............                                          ...............              ",
"              ...............                                          ...............              ",
"              ...............                                          ...............              ",
"              ...............                                          ...............              ",
"              ...............                                          ...............              ",
"              ...............                                          ...............              ",
"              ...............                                          ...............              ",
"              ...............                                          ...............              ",
"              ...............                                          ...............              ",
"              ...............                                          ...............              ",
"              ...............                                          ...............              ",
"              ...............                                          ...............              ",
"              ...............                                          ...............              ",
"              ...............                                          ...............              ",
"              ...............                                          ...............              ",
"              ...............                                          ...............              ",
"              ...............              ..............              ...............              ",
"              ...............              ..............              ...............              ",
"              ...............              ..............              ...............              ",
"              ...............              ..............              ...............              ",
"              ...............              ..............              ...............              ",
"              ...............              ..............              ...............              ",
"              ...............              ..............              ...............              ",
"              ...............              ..............              ...............              ",
"              ...............              ..............              ...............              ",
"              ...............              ..............              ...............              ",
"              ...............              ..............              ...............              ",
"              ...............              ..............              ...............              ",
"              ...............              ..............              ...............              ",
"              ...............              ..............              ...............              ",
"              ...............              ..............              ...............              ",
"              ...............              ..............              ...............              ",
"              ...............              ..............              ...............              ",
"              ...............              ..............              ...............              ",
"              ...............              ..............              ...............              ",
"              ...............              ..............              ...............              ",
"              ...............              ..............              ...............              ",
"              ...............              ..............              ...............              ",
"              ...............              ..............              ...............              ",
"              ...............              ..............              ...............              ",
"              ...............              ..............              ...............              ",
"              ...............              ..............              ...............              ",
"              ...............              ..............              ...............              ",
"              ...............              ..............              ...............              ",
"              ...............              ..............              ...............              ",
"              ...............              ..............              ...............              ",
"              ...............              ..............              ...............              ",
"              ...............              ..............              ...............              ",
"              ...............              ..............              ...............              ",
"              ...............              ..............              ...............              ",
"              ...............              ..............              ...............              ",
"              ...............              ..............              ...............              ",
"              ...............              ..............              ...............              ",
"              ...............              ..............              ...............              ",
"              ...............              ..............              ...............              ",
"              ...............              ..............              ...............              ",
"              ...............              ..............              ...............              ",
"              ...............              ..............              ...............              ",
"              ...............              ..............              ...............              ",
"              ...............              ..............              ...............              ",
"              ...............              ..............              ...............              ",
"              ...............              ..............              ...............              ",
"              ...............              ..............              ...............              ",
"              ...............              ..............              ...............              ",
"              ...............              ..............              ...............              ",
"              ...............              ..............              ...............              ",
"              ...............              ..............              ...............              ",
"              ...............              ..............              ...............              ",
"              ...............              ..............              ...............              ",
"              ...............              ..............              ...............              ",
"              ...............              ..............              ...............              ",
"              ...............              ..............              ...............              ",
"              ...............              ..............              ...............              ",
"                             ..............              ..............                             ",
"                             ..............              ..............                             ",
"                             ..............              ..............                             ",
"                             ..............              ..............                             ",
"                             ..............              ..............                             ",
"                             ..............              ..............                             ",
"                             ..............              ..............                             ",
"                             ..............              ..............                             ",
"                             ..............              ..............                             ",
"                             ..............              ..............                             ",
"                             ..............              ..............                             ",
"                             ..............              ..............                             ",
"                             ..............              ..............                             ",
"                             ..............              ..............                             "};
