/* XPM */
static char * y_xpm[] = {
"71 100 2 1",
" 	c None",
".	c #000000",
"              ..............               ..............              ",
"              ..............               ..............              ",
"              ..............               ..............              ",
"              ..............               ..............              ",
"              ..............               ..............              ",
"              ..............               ..............              ",
"              ..............               ..............              ",
"              ..............               ..............              ",
"              ..............               ..............              ",
"              ..............               ..............              ",
"              ..............               ..............              ",
"              ..............               ..............              ",
"              ..............               ..............              ",
"              ..............               ..............              ",
"              ..............               ..............              ",
"              ..............               ..............              ",
"              ..............               ..............              ",
"              ..............               ..............              ",
"              ..............               ..............              ",
"              ..............               ..............              ",
"              ..............               ..............              ",
"              ..............               ..............              ",
"              ..............               ..............              ",
"              ..............               ..............              ",
"              ..............               ..............              ",
"              ..............               ..............              ",
"              ..............               ..............              ",
"              ..............               ..............              ",
"              ..............               ..............              ",
"              ..............               ..............              ",
"              ..............               ..............              ",
"              ..............               ..............              ",
"              ..............               ..............              ",
"              ..............               ..............              ",
"              ..............               ..............              ",
"              ..............               ..............              ",
"              ..............               ..............              ",
"              ..............               ..............              ",
"              ..............               ..............              ",
"              ..............               ..............              ",
"              ..............               ..............              ",
"              ..............               ..............              ",
"              ..............               ..............              ",
"              ..............               ..............              ",
"              ..............               ..............              ",
"              ..............               ..............              ",
"              ..............               ..............              ",
"              ..............               ..............              ",
"              ..............               ..............              ",
"              ..............               ..............              ",
"              ..............               ..............              ",
"              ..............               ..............              ",
"              ..............               ..............              ",
"              ..............               ..............              ",
"              ..............               ..............              ",
"              ..............               ..............              ",
"              ..............               ..............              ",
"                            ...............                            ",
"                            ...............                            ",
"                            ...............                            ",
"                            ...............                            ",
"                            ...............                            ",
"                            ...............                            ",
"                            ...............                            ",
"                            ...............                            ",
"                            ...............                            ",
"                            ...............                            ",
"                            ...............                            ",
"                            ...............                            ",
"                            ...............                            ",
"                            ...............                            ",
"                            ...............                            ",
"                            ...............                            ",
"                            ...............                            ",
"                            ...............                            ",
"                            ...............                            ",
"                            ...............                            ",
"                            ...............                            ",
"                            ...............                            ",
"                            ...............                            ",
"                            ...............                            ",
"                            ...............                            ",
"                            ...............                            ",
"                            ...............                            ",
"                            ...............                            ",
"                            ...............                            ",
"                            ...............                            ",
"                            ...............                            ",
"                            ...............                            ",
"                            ...............                            ",
"                            ...............                            ",
"                            ...............                            ",
"                            ...............                            ",
"                            ...............                            ",
"                            ...............                            ",
"                            ...............                            ",
"                            ...............                            ",
"                            ...............                            ",
"                            ...............                            ",
"                            ...............                            "};
