/* XPM */
static char * y_xpm[] = {
"5 7 2 1",
" 	c None",
".	c #000000",
" . . ",
" . . ",
" . . ",
" . . ",
"  .  ",
"  .  ",
"  .  "};
