/* XPM */
static char * bottom_right_corner_xpm[] = {
"64 64 30 1",
" 	c #BFB8B4",
".	c #B8B1AE",
"+	c #4E4C52",
"@	c #37465C",
"#	c #4999D4",
"$	c #4B9FDC",
"%	c #BEB7B3",
"&	c #918D8D",
"*	c #4C9FDC",
"=	c #8AB9DB",
"-	c #4D9FDC",
";	c #53A1DC",
">	c #666467",
",	c #656367",
"'	c #4D4B52",
")	c #83B5DB",
"!	c #86B7DB",
"~	c #82B5DB",
"{	c #44434B",
"]	c #676567",
"^	c #43424A",
"/	c #5AA4DC",
"(	c #646267",
"_	c #4C4B51",
":	c #383742",
"<	c #39526E",
"[	c #4A9AD5",
"}	c #4B9FDB",
"|	c #59A4DC",
"1	c #52A1DC",
"           .+@#$$$$$$$$$$$$$$$$$$$$$$$$$$$$$$$$$$$$$$$$$$$$$$$$$",
"%%         .+@#$$$$$$$$$$$$$$$$$$$$$$$$$$$$$$$$$$$$$$$$$$$$$$$$$",
"%%         .+@#$$$$$$$$$$$$$$$$$$$$$$$$$$$$$$$$$$$$$$$$$$$$$$$$$",
"           .+@#$$$$$$$$$$$$$$$$$$$$$$$$$$$$$$$$$$$$$$$$$$$$$$$$$",
"           .+@#$$$$$$$$$$$$$$$$$$$$$$$$$$$$$$$$$$$$$$$$$$$$$$$$$",
"           .+@#$$$$$$$$$$$$$$$$$$$$$$$$$$$$$$$$$$$$$$$$$$$$$$$$$",
"           .+@#$$$$$$$$$$$$$$$$$$$$$$$$$$$$$$$$$$$$$$$$$$$$$$$$$",
"           .+@#$$$$$$$$$$$$$$$$$$$$$$$$$$$$$$$$$$$$$$$$$$$$$$$$$",
"%%         .+@#$$$$$$$$$$$$$$$$$$$$$$$$$$$$$$$$$$$$$$$$$$$$$$$$$",
"%%         .+@#$$$$$$$$$$$$$$$$$$$$$$$$$$$$$$$$$$$$$$$$$$$$$$$$$",
"&&&&&&&&&&&&+@#$$$$$$$$$$$$$$$$$$$$$$$$$$$$$$$$$$$$$$$$$$$$$$$$$",
"&&&&&&&&&&&&+@#$$$$$$$$$$$$$$$$$$$$$$$$$$$$$$$$$$$$$$$$$$$$$$$$$",
"&&&&&&&&&&&&+@#$$$$$$$$$$$$$********$$==============$$$****$$$$$",
"&&&&&&&&&&&&+@#$$$$$$$$$$$$$**-;;;;;;;==============;;;;;;;*$$$$",
">>>>>>>>,,,>'@#$$$$$$$$$$$$$**;)!!!!!!==============!!!!!!~;**$$",
">>>>>>>>,,,>{@#$$$$$$$$$$$$$**;!==================!=======!;**$$",
">]&&&&&&&&&&^@#$$$$$$$$$$$$$**;!=======!/;;;;;;;;/!=======!;**$$",
">>&&&&&&&&&&{@#$$$$$$$$$$$$$**;!========**********========!;**$$",
"]]&&&&&&&&&&'@#$$$$$$$$$$$$$**;~!!!!!!==**********==!!!!!!);**$$",
"]]&&&&&&&&&&+@#$$$$$$$$$****$$*;;;;;;/**************$;;;;;;-**$$",
">>>>>>>>,,,>+@#$$$$$$$$$****$$$******;**************$*********$$",
">>>>>>>>,,,>+@#$$$$$$$$$****$$$$$$$$$*$$$$$$$$$$$$$$$**$$$$$$$$$",
"&&&&&&&&&&&&+@#$$$$$$$$$****$$$$$$$$$$$$***************$$$$$$$$$",
"&&&&&&&&&&&&+@#$$$$$$$$$****$$$$$$$$$$$$***************$$$$$$$$$",
"&&&&&&&&&&&&+@#$$$$$$$$$$$$$$$$$$$$$$$$$$$$$$$$$$$**$$$$$$$$$$$$",
"&&&&&&&&&&&&+@#$$$$$$$$$$$$$$$$$$$$$$$$$$$$$$$$$$$**$$$$$$$$$$$$",
"(((,(,,,,(,,+@#$$$$$$$$$$$$$$$$$$$$$$$$$$$$$$$$$$$$$$$$$$$$$$$$$",
"(((,(,,,,(,,+@#$$$$$$$$$$$$$$$$$$$$$$$$$$$$$$$$$$$$$$$$$$$$$$$$$",
"]]&&&&&&&&&&+@#$$$$$$$$$$$$$$$$$$$$$$$$$$$$$$$$$$$$$$$$$$$$$$$$$",
">>&&&&&&&&&&+@#$$$$$$$$$$$$$$$$$$$$$$$$$$$$$$$$$$$$$$$$$$$$$$$$$",
">>&&&&&&&&&&+@#$$$$$$$$$$$$$$$$$$$$$$$$$$$$$$$$$$$$$$$$$$$$$$$$$",
"]]&&&&&&&&&&_@#$$$$$$$$$$$$$$$$$$$$$$$$$$$$$$$$$$$$$$$$$$$$$$$$$",
"+++++++++++_:@#$$$$$$$$$$$$$$$$$$$$$$$$$$$$$$$$$$$$$$$$$$$$$$$$$",
"@@@@@@@@@@@@@<[$$$$$$$$$$$$$$$$$$$$$$$$$$$$$$$$$$$$$$$$$$$$$$$$$",
"#############[}$$$$$$$$$$$$$$$$$$$$$$$$$$$$$$$$$$$$$$$$$$$$$$$$$",
"$$$$$$$$$$$$$$$$$$$$$$$$$$$$$$$$$$$$$$$$$$$$$$$$$$$$$$$$$$$$$$$$",
"$$$$$$$$$$$$$$$$$$$$$$$$$$$$$$$$$$$$$$$$$$$$$$$$$$$$$$$$$$$$$$$$",
"$$$$$$$$$$$$$$$$$$$$$$$$$$$$$$$$$$$$$$$$$$$$$$$$$$$$$$$$$$$$$$$$",
"$$$$$$$$$$$$$$$$$$$$$$$$$$$$$$$$$$$$$$$$$$$$$$$$$$$$$$$$$$$$$$$$",
"$$$$$$$$$$$$$$$$$$$$$$$$$$$$$$$$$$$$$$$$$$$$$$$$$$$$$$$$$$$$$$$$",
"$$$$$$$$$$$$$$$$$$$$$$$$$$$$$$$$$$$$$$$$$$$$$$$$$$$$$$$$$$$$$$$$",
"$$$$$$$$$$$$$$$$$$$$$$$$$$$$$$$$$$$$$$$$$$$$$$$$$$$$$$$$$$$$$$$$",
"$$$$$$$$$$$$$$$$$$$$$$$$$$$$$$$$$$$$$$$$$$$$$$$$$$$$$$$$$$$$$$$$",
"$$$$$$$$$$$$$$$$$$$$$$$$$$$$$$$$$$$$$$$$$$$$$$$$$$$$$$$$$$$$$$$$",
"$$$$$$$$$$$$$$$$$$$$$$$$$$$$$$$$$$$$$$$$$$$$$$$$$$$$$$$$$$$$$$$$",
"$$$$$$$$$$$$$$$$$$$$$$$$$$$$$$$$$$$$$$$$$$$$$$$$$$$$$$$$$$$$$$$$",
"$$$$$$$$$$$$$$$$$$$$$$$$$$$$$$$$$$$$$$$$$$$$$$$$$$$$$$$$$$$$$$$$",
"$$$$$$$$$$$$$$$$$$$$$$$$$$$$$$$$$$$$$$$$$$$$$$$************$$$$$",
"$$$$$$$$$$$$$$$$$$$$$$$$$$$$$$$$$$$$$$$$$$$$$$$************$$$$$",
"$$$$$$$$$$$$$$$$$$$$$$$$$$$$$$$$$$$$$$$$$$$$$$$************$$$$$",
"$$$$$$$$$$$$*********===============**$$*******************$$$$$",
"$$$$$$$$$$$*;;;;;;;;;===============;;;;;;;;;-*************$$$$$",
"$$$$$$$$$$*;~!!!!!!!!===============!!!!!!!!);*************$$$$$",
"$$$$$$$$$$*;!====================!==========!;*************$$$$$",
"$$$$$$$$$$*;!==========!|;;;;;;;/!==========!;*************$$$$$",
"$$$$$$$$$$*;!===========*********===========!;******$$$$$$$$$$$$",
"$$$$$$$$$$*;~!!!!!!!!===**$$$$$$$===!!!!!!!!~;******$$$$$$$$$$$$",
"$$$$$$$$$$$*1;;;;;;;$***$$$$$$$$$***|;;;;;;;1*$$$$$$$$$$$$$$$$$$",
"$$$$$$$$$$$$$$$$$$$$$***************1$$$$$$$$$$$$$$$$$$$$$$$$$$$",
"$$$$$$$$$$$$$$$$$$$$$$$$$$;;;;;;;$$$*$$$$$$$$$$$$$$$$$$$$$$$$$$$",
"$$$$$$$$$$$$$$$$$$$$$$$$$$$$$$$$$$$$$$$$$$$$$$$$$$$$$$$$$$$$$$$$",
"$$$$$$$$$$$$$$$$$$$$$$$$$$$$$$$$$$$$$$$$$$$$$$$$$$$$$$$$$$$$$$$$",
"$$$$$$$$$$$$$$$$$$$$$$$$$$$$$$$$$$$$$$$$$$$$$$$$$$$$$$$$$$$$$$$$",
"$$$$$$$$$$$$$$$$$$$$$$$$$$$$$$$$$$$$$$$$$$$$$$$$$$$$$$$$$$$$$$$$"};
