/* XPM */
static char * collectible_xpm[] = {
"64 64 321 2",
"  	c #BFB8B4",
". 	c #C5BFBB",
"+ 	c #CF4C36",
"@ 	c #D34D38",
"# 	c #4789A5",
"$ 	c #6E442E",
"% 	c #694330",
"& 	c #793F28",
"* 	c #B24126",
"= 	c #C2452E",
"- 	c #EAB180",
"; 	c #65412F",
"> 	c #47323F",
", 	c #64422F",
"' 	c #49739A",
") 	c #49789D",
"! 	c #B6C1B1",
"~ 	c #BEB8B5",
"{ 	c #74452E",
"] 	c #794E37",
"^ 	c #49769B",
"/ 	c #624230",
"( 	c #61412F",
"_ 	c #321E29",
": 	c #AD3E23",
"< 	c #BF442D",
"[ 	c #D24D37",
"} 	c #634130",
"| 	c #CD4C38",
"1 	c #CB4C3D",
"2 	c #48779B",
"3 	c #4987A4",
"4 	c #71432D",
"5 	c #BFB8B5",
"6 	c #745040",
"7 	c #4A7299",
"8 	c #B7C2B1",
"9 	c #E6B383",
"0 	c #6C4B64",
"a 	c #B74127",
"b 	c #E17E55",
"c 	c #CC4C3C",
"d 	c #487A9D",
"e 	c #674331",
"f 	c #6B4532",
"g 	c #6E4531",
"h 	c #D04D38",
"i 	c #704F3B",
"j 	c #B9916E",
"k 	c #476B96",
"l 	c #4881A1",
"m 	c #563527",
"n 	c #523424",
"o 	c #553627",
"p 	c #E9B600",
"q 	c #583B28",
"r 	c #593C29",
"s 	c #A23B1C",
"t 	c #AF3F24",
"u 	c #724A32",
"v 	c #9E432C",
"w 	c #D15D46",
"x 	c #553826",
"y 	c #523422",
"z 	c #533422",
"A 	c #EAA000",
"B 	c #E8AC00",
"C 	c #F0C936",
"D 	c #E9CA66",
"E 	c #533322",
"F 	c #5F402E",
"G 	c #644230",
"H 	c #3C2110",
"I 	c #543525",
"J 	c #674444",
"K 	c #C69331",
"L 	c #75422F",
"M 	c #573928",
"N 	c #4C2E1F",
"O 	c #462818",
"P 	c #422717",
"Q 	c #472818",
"R 	c #452616",
"S 	c #422616",
"T 	c #3F2313",
"U 	c #4A2C1D",
"V 	c #533425",
"W 	c #593627",
"X 	c #FF831E",
"Y 	c #FBC278",
"Z 	c #FA800A",
"` 	c #E99400",
" .	c #E9A700",
"..	c #B2AAA6",
"+.	c #495389",
"@.	c #4886A3",
"#.	c #4E86A0",
"$.	c #63412F",
"%.	c #C28A14",
"&.	c #E7AD00",
"*.	c #CB9D0B",
"=.	c #4B2D1E",
"-.	c #452717",
";.	c #472919",
">.	c #482A1A",
",.	c #E27100",
"'.	c #FC8015",
").	c #FE8218",
"!.	c #543523",
"~.	c #809FB7",
"{.	c #5B8598",
"].	c #7A544E",
"^.	c #E68A00",
"/.	c #CF9101",
"(.	c #4D3120",
"_.	c #442918",
":.	c #904B32",
"<.	c #893922",
"[.	c #883923",
"}.	c #964B33",
"|.	c #553625",
"1.	c #D65231",
"2.	c #533424",
"3.	c #465C8D",
"4.	c #4A6693",
"5.	c #51383B",
"6.	c #7E5423",
"7.	c #824531",
"8.	c #97491E",
"9.	c #6D3C2E",
"0.	c #86422F",
"a.	c #98491F",
"b.	c #4B2D1A",
"c.	c #C04C17",
"d.	c #D14C37",
"e.	c #5C3C2A",
"f.	c #EF7B27",
"g.	c #78452C",
"h.	c #9E431B",
"i.	c #733D2B",
"j.	c #733C2B",
"k.	c #784C38",
"l.	c #486391",
"m.	c #487C9E",
"n.	c #AA3E22",
"o.	c #E5AE7A",
"p.	c #603527",
"q.	c #92402E",
"r.	c #C46400",
"s.	c #C86926",
"t.	c #5F3C25",
"u.	c #854E2F",
"v.	c #7C442D",
"w.	c #623326",
"x.	c #48598C",
"y.	c #4B7A9E",
"z.	c #6B4531",
"A.	c #A13B1C",
"B.	c #A0391C",
"C.	c #953D24",
"D.	c #CE4B36",
"E.	c #E47E54",
"F.	c #AB4437",
"G.	c #53352D",
"H.	c #5E3E31",
"I.	c #6E4732",
"J.	c #754B33",
"K.	c #543424",
"L.	c #933820",
"M.	c #A23B1D",
"N.	c #B64127",
"O.	c #4D3334",
"P.	c #4E343D",
"Q.	c #4A83A3",
"R.	c #80AABD",
"S.	c #50301E",
"T.	c #5C3B2A",
"U.	c #4F301F",
"V.	c #5B3E3C",
"W.	c #9F391A",
"X.	c #5A3D48",
"Y.	c #4C301F",
"Z.	c #5B3B29",
"`.	c #475D8E",
" +	c #48558B",
".+	c #753F26",
"++	c #E8B500",
"@+	c #BCB4B0",
"#+	c #C5472F",
"$+	c #7E5C43",
"%+	c #4E322F",
"&+	c #563523",
"*+	c #4A2D1E",
"=+	c #5A3E2F",
"-+	c #E9A100",
";+	c #E9B000",
">+	c #60402E",
",+	c #62402F",
"'+	c #A93D22",
")+	c #E3AD77",
"!+	c #C54731",
"~+	c #E8B400",
"{+	c #EFC834",
"]+	c #EACB66",
"^+	c #AF693F",
"/+	c #8F5536",
"(+	c #895D43",
"_+	c #89644B",
":+	c #4A2D1D",
"<+	c #5E3F2C",
"[+	c #D14E35",
"}+	c #D7542D",
"|+	c #5E3E2B",
"1+	c #543625",
"2+	c #A33C1E",
"3+	c #D18003",
"4+	c #E99900",
"5+	c #F0BC21",
"6+	c #E9B100",
"7+	c #A1562E",
"8+	c #99512A",
"9+	c #974F24",
"0+	c #AE7756",
"a+	c #7F5E4C",
"b+	c #6F4933",
"c+	c #4C3020",
"d+	c #432817",
"e+	c #875E49",
"f+	c #85695B",
"g+	c #C2472F",
"h+	c #E17E52",
"i+	c #B8C4B3",
"j+	c #5A3D2B",
"k+	c #FF8421",
"l+	c #5B3E2C",
"m+	c #8D6D51",
"n+	c #E67E00",
"o+	c #E57C00",
"p+	c #884D36",
"q+	c #9B5129",
"r+	c #6D3224",
"s+	c #99512B",
"t+	c #9F5122",
"u+	c #A25120",
"v+	c #A96031",
"w+	c #A5673F",
"x+	c #432818",
"y+	c #412616",
"z+	c #48558A",
"A+	c #476291",
"B+	c #523322",
"C+	c #D36600",
"D+	c #DC6B00",
"E+	c #EF7800",
"F+	c #FF821A",
"G+	c #905E3D",
"H+	c #A2643D",
"I+	c #9B5A33",
"J+	c #9B512A",
"K+	c #A35120",
"L+	c #A3511E",
"M+	c #AC6337",
"N+	c #9F562E",
"O+	c #6A4535",
"P+	c #492A19",
"Q+	c #4C2E1E",
"R+	c #503120",
"S+	c #AD7E5B",
"T+	c #9E6541",
"U+	c #A55F31",
"V+	c #A25122",
"W+	c #9E512B",
"X+	c #A85B2E",
"Y+	c #AC6A49",
"Z+	c #8D5F49",
"`+	c #7C513D",
" @	c #492C1A",
".@	c #492C1D",
"+@	c #835B44",
"@@	c #92533A",
"#@	c #A66646",
"$@	c #98512A",
"%@	c #9C5029",
"&@	c #924731",
"*@	c #98502A",
"=@	c #A05021",
"-@	c #B46334",
";@	c #AB6947",
">@	c #A36549",
",@	c #9A6341",
"'@	c #A66541",
")@	c #A7633A",
"!@	c #AF6A44",
"~@	c #AA5C2E",
"{@	c #A85C2E",
"]@	c #9A5029",
"^@	c #954932",
"/@	c #844729",
"(@	c #A3562B",
"_@	c #A1562B",
":@	c #9C552B",
"<@	c #9C542B",
"[@	c #A0552B",
"}@	c #A65627",
"|@	c #97502A",
"1@	c #6D3326",
"2@	c #763C2B",
"3@	c #7E4532",
"4@	c #7F4732",
"5@	c #86432E",
"6@	c #844331",
"7@	c #85422F",
"8@	c #844333",
"9@	c #814432",
"0@	c #81432E",
"a@	c #81422D",
"b@	c #753928",
"c@	c #6C3224",
"d@	c #703222",
"e@	c #703123",
"f@	c #703224",
"                                                                                                                                ",
"                                                                                                                                ",
"                                                                                                                                ",
"                                                                                                                                ",
"                                                                                                                                ",
"                                                                                                                                ",
"                                                                                                                                ",
"                                                                                                                                ",
"                                                                                                                  . .           ",
"                                                                                                                  . .           ",
"                                                                                                            . . . . .           ",
"                                                                                                            . . . . .           ",
"                                                                                                            . . . . .           ",
"                                                                                                            . . . . .           ",
"                                                    + @ @ @                 # # # #                                             ",
"                                                    + @ @ @                 # # # #                                             ",
"                                          $ % % & & * = = - @ @ ; ; > , , ' ) ) ! ! #                           ~ ~             ",
"                                          $ % % & & * = = - @ @ ; ; > , , ' ) ) ! ! #                           ~ ~             ",
"                                { { ] ^ ^ # / / ( ( _ : : < [ [ ( ( } | | 1 ) ) 2 2 3 4 4                       5 5             ",
"                            6 6 / / / 7 7 8 # # 9 9 9 > > 0 ( ( ( ( ( a a b c c d d e f f g                                     ",
"                            6 6 / / / 7 7 8 # # 9 9 9 > > 0 ( ( ( ( ( a a b c c d d e f f g                                     ",
"                          + h h i i j > > k l l m m n o o p p p q q r s s t + + } } ( / / g g g     p                           ",
"                      u u v @ @ w w > 0 0 > x x y y z A A B C C D D E _ _ > 0 0 r r F ( ( G 0 0 p p p p p                       ",
"                      u u v @ @ w w > 0 0 > x x y y z A A B C C D D E _ _ > 0 0 r r F ( ( G 0 0 p p p p p                       ",
"                H H I J J K L L M M M N N O P P Q Q R S S _ > > 0 0 T U U V r r r r W r r X Y Y Z Z `  . ...                    ",
"                H H I J J K L L M M M N N O P P Q Q R S S _ > > 0 0 T U U V r r r r W r r X Y Y Z Z `  . ...                    ",
"          +.@.@.#.#.$.%.%.&.*.*.N N =.P P P -.-.;.;.H ;.;.>.H H ;.;.H U U O H H r r I > > ,.'.'.).).> !.!.H                     ",
"          @.~.~.@.@.{.].].^././.(.(._.H H H H H :.:.<.<.<.<.<.<.<.<.[.}.}.H H H H H |.r r _ ,.,.F F F 1.1.2.                    ",
"          @.~.~.@.@.{.].].^././.(.(._.H H H H H :.:.<.<.<.<.<.<.<.<.[.}.}.H H H H H |.r r _ ,.,.F F F 1.1.2.                    ",
"          +.3.3.4.4.$.J J 5.6.6.;.;.H H H 7.8.8.9.9.9.9.9.9.9.9.9.9.9.0.0.a.O O b.b.H # # $.$.$.$.$.c.d.d.@                     ",
"          _ > > e.e.$.$.$.f.>.>.(.(.H g.g.h.i.i.                          j.k.k.H H l.m.m.$.$.$.0 0 n.: : o.I I                 ",
"          _ > > e.e.$.$.$.f.>.>.(.(.H g.g.h.i.i.                          j.k.k.H H l.m.m.$.$.$.0 0 n.: : o.I I                 ",
"          I p.p.q.q.$.r.r.'.s.s.;.;.t.u.u.v.                                w.w.> > x.x.x.y.$.$.z.z.> A.A.B.I I                 ",
"          I p.p.q.q.$.r.r.'.s.s.;.;.t.u.u.v.                                w.w.> > x.x.x.y.$.$.z.z.> A.A.B.I I                 ",
"          C.D.D.E.E.F.G.G.H.# # F F I.J.J.                                      K.K.G 0 0 $.z.z.$.$.$.y y ;.H H                 ",
"          L.M.M.N.N.O.e.e.P.Q.Q.R.R.F F F                                       S.S.$.$.$.@ z.z.z.z.T.U.U.;.H H                 ",
"          L.M.M.N.N.O.e.e.P.Q.Q.R.R.F F F                                       S.S.$.$.$.@ z.z.z.z.T.U.U.;.H H                 ",
"          V.W.W.X.X.;.Y.Y.Z.`.`. + +0 F F .+++++p p                   @+@+$.$.$.$.$.$.#+#+d.[ [ / / ;.p p >.>.>.                ",
"          $+%+%+&+&+;.*+*+=+> > > > F F F .+-+-+;+;+p >+>+,+$.$.$.$.$.$.$., F F $.$.> '+'+)+!+!+>.>.~+{+{+]+^+^+                ",
"          $+%+%+&+&+;.*+*+=+> > > > F F F .+-+-+;+;+p >+>+,+$.$.$.$.$.$.$., F F $.$.> '+'+)+!+!+>.>.~+{+{+]+^+^+                ",
"          /+(+(+_+_+,+H H :+e.e.j j z.<+<+[+}+}+-+-+# # # F |+|+F F F F F F F F o o 1+0 0 2+I I 3+3+4+5+5+6+7+7+                ",
"          /+(+(+_+_+,+H H :+e.e.j j z.<+<+[+}+}+-+-+# # # F |+|+F F F F F F F F o o 1+0 0 2+I I 3+3+4+5+5+6+7+7+                ",
"          8+9+9+0+0+a+b+b+c+_._.d+d+e+f+f+g+h+h+> > # # # i+F F F F F j+j+k+k+k+l+l+m+j j > >.>.0 0 n+o+o+p+q+q+                ",
"          r+s+s+t+t+u+v+v+w+!.!.x+x+y+T T > > > I I I z+z+A+0 0 B+B+M C+C+D+E+E+F+F+>.>.>.G+H+H+I+I+u+t+t+J+                    ",
"          r+s+s+t+t+u+v+v+w+!.!.x+x+y+T T > > > I I I z+z+A+0 0 B+B+M C+C+D+E+E+F+F+>.>.>.G+H+H+I+I+u+t+t+J+                    ",
"            r+r+q+q+u+K+K+L+M+M+N+N+O+>.>.;.y+y+P+P+Q+> > > > > R+R+Y.> > C+>.>.j+j+S+T+T+U+K+K+K+K+V+s+s+r+                    ",
"                r+r+W+q+q+K+X+X+X+X+X+Y+Y+Z+`+`+;.;.>.>.>.>. @ @.@.@>.+@+@@@p+p+#@#@X+X+X+K+K+K+$@$@%@r+r+                      ",
"                r+r+W+q+q+K+X+X+X+X+X+Y+Y+Z+`+`+;.;.>.>.>.>. @ @.@.@>.+@+@@@p+p+#@#@X+X+X+K+K+K+$@$@%@r+r+                      ",
"                    r+&@&@*@=@=@K+K+K+X+X+X+X+X+-@-@;@>@>@,@'@'@)@)@!@~@~@X+X+X+{@{@u+K+K+=@]@]@^@^@r+                          ",
"                    r+&@&@*@=@=@K+K+K+X+X+X+X+X+-@-@;@>@>@,@'@'@)@)@!@~@~@X+X+X+{@{@u+K+K+=@]@]@^@^@r+                          ",
"                      r+r+r+/@/@*@*@*@*@*@(@_@_@_@_@_@_@_@_@:@:@<@<@<@[@[@_@}@}@*@*@|@*@*@=@r+r+r+r+                            ",
"                            1@1@1@1@r+2@2@3@4@4@5@5@6@6@6@7@0.0.7@7@8@9@9@0@a@a@b@b@r+r+r+r+                                    ",
"                            1@1@1@1@r+2@2@3@4@4@5@5@6@6@6@7@0.0.7@7@8@9@9@0@a@a@b@b@r+r+r+r+                                    ",
"                                      c@c@r+d@d@e@e@e@e@e@e@e@e@e@e@e@e@e@f@f@f@r+r+                                            ",
"                                                                                                                                ",
"                                                                                                                                ",
"                                                                                                                                ",
"                                                                                                                                ",
"                                                                                                                                ",
"                                                                                                                                ",
"                                                                                                                                ",
"                                                                                                                                ",
"                                                                                                                                ",
"                                                                                                                                "};
