/* XPM */
static char * door_closed_xpm[] = {
"64 64 10 1",
" 	c #BFB8B4",
".	c #353540",
"+	c #EDE4DA",
"@	c #C5BFBB",
"#	c #918D8D",
"$	c #636167",
"%	c #604B3D",
"&	c #735B42",
"*	c #EEB551",
"=	c #E39347",
"                                                                ",
"                                                                ",
"                                                                ",
"                                                                ",
"                                                                ",
"                                                                ",
"        ................................................        ",
"        ................................................        ",
"        ..              ..             .          +++++. @@     ",
"        ..              ##             #             ++. @@     ",
"        ..              ##             #             ++.@@@     ",
"    ......              ##             #               ......   ",
"    ......              ##             #               ......   ",
"    .   ..              ##             #               .++++.   ",
"    .   ..##############$$#############$###############.  ++.   ",
"    .   ..##############$$#############$###############.  ++.   ",
".....   ..##############$$#############$###############.    ....",
"..  .   ..$$$$$$$$$$$$$$$$$$$$$$$$$$$$$$$$$$$$$$$$$$$$$.    .++.",
"..  .   ..$$$$$$$$$$$$$$$$$$$$$$$$$$$$$$$$$$$$$$$$$$$$$.    .++.",
"..  .###############$#######################$###############.++.",
"..  .###############$#######################$###############.++.",
"..  .###############$#######################$###############.  .",
"..  .$$$$$$$$$$$$$$$$$$$$$.............$$$$$$$$$$$$$$$$$$$$$.  .",
"..  .$$$$$$$$$$$$$$$$$$$$$.............$$$$$$$$$$$$$$$$$$$$$.  .",
"..##########$#############..%%%...%%%..#############$##########.",
"..##########$#############..%%%...%%%..#############$##########.",
"..##########$#############..%%%...%%%..#############$##########.",
"..$$$$$$$$$$$$$$$$..........%%%...%%%..........$$$$$$$$$$$$$$$$.",
"..$$$$$$$$$$$$$$$$..........%%%...%%%..........$$$$$$$$$$$$$$$$.",
"..################..%%%%%%%%%%%...%%%%%%%%%%%..################.",
"..################..%%%%%%%%%%%...%%%%%%%%%%%..################.",
"..################..%%%%%%%%%%%...%%%%%%%%%%%..################.",
"..$$$$$$$$$$$.......%&&&%%&&&%%...%%&&&%&&&&%.......$$$$$$$$$$$.",
"..$$$$$$$$$$$.......%&&&%%&&&%%...%%&&&%&&&&%.......$$$$$$$$$$$.",
"..###$$######..%%%%%%&&&%%&&&%%...%%&&&%&&&&%%%%%%..######$$###.",
"..###$$######..%%%%%%%%%%%&&&%%...%%&&&%%%%%%%%%%%..######$$###.",
"..###$$######..%%%%%%%%%%%&&&%%...%%&&&%%%%%%%%%%%..######$$###.",
"..$$$$$$$$$$$..%&&&&%&&......%%...%%......&&%&&&%%..$$$$$$$$$$$.",
"#############..%&&&&%&&.****.%%...%%.***..&&%&&&%%..############",
"#############..%&&&&%&&.****.%%...%%.***..&&%&&&%%..############",
"#############..%%%%%%&&.====.%%...%%.===..&&%%%%%%..############",
"#############..%%%%%%&&.====.%%...%%.===..&&%%%%%%..############",
"$$$$$$$$$$$$$..%&&&&%&&.====.%%...%%.===..&&%&&&%%..$$$$$$$$$$$$",
"#######$#####..%&&&&%&&......%%...%%......&&%&&&%%..####$$######",
"#######$#####..%&&&&%&&......%%...%%......&&%&&&%%..####$$######",
"#######$#####..%&&&&%%%%%%&&&%%...%%&&&%%%%%%&&&%%..####$$######",
"$$$$$$$$$$$$$..%&&&&%&&&%%&&&%%...%%&&&%&&&&%&&&%%..$$$$$$$$$$$$",
"$$$$$$$$$$$$$..%&&&&%&&&%%&&&%%...%%&&&%&&&&%&&&%%..$$$$$$$$$$$$",
"#############..%&&&&%&&&%%&&&%%...%%&&&%&&&&%&&&%%..############",
"#############..%&&&&%&&&%%&&&%%...%%&&&%&&&&%&&&%%..############",
"#############..%%%%%%%%%%%%%%%%...%%%%%%%%%%%%%%%%..############",
"$$$$$$$$$$$$$.......................................$$$$$$$$$$$$",
"$$$$$$$$$$$$$.......................................$$$$$$$$$$$$",
"#############..                                   ..############",
"#############..                                   ..############",
"#############..                                   ..############",
"$$$$$$$$$$$$$..                                   ..$$$$$$$$$$$$",
"$$$$$$$$$$$$$..                                   ..$$$$$$$$$$$$",
"                                                                ",
"                                                                ",
"                                                                ",
"                                                                ",
"                                                                ",
"                                                                "};
