/* XPM */
static char * door_end_right_xpm[] = {
"64 64 16 1",
" 	c #BFB8B4",
".	c #C5BFBB",
"+	c #353540",
"@	c #EDE4DA",
"#	c #918D8D",
"$	c #636167",
"%	c #E9D8A1",
"&	c #E18D79",
"*	c #833129",
"=	c #624D41",
"-	c #DC534B",
";	c #000000",
">	c #EEB551",
",	c #F5F4EB",
"'	c #E39347",
")	c #735B42",
"                                                                ",
"                                                                ",
"      ...                                                       ",
"                                                                ",
"                                                                ",
"                                                                ",
"        ++++++++++++++++++++++++++++++++++++++++++++++++        ",
"        ++++++++++++++++++++++++++++++++++++++++++++++++        ",
"        +               +             ++         @@@@@++        ",
"        +               #             ##            @@++        ",
"        +               #             ##            @@++        ",
"   ++++++               #             ##              ++++++    ",
"   ++++++               #             ##              ++++++    ",
"   +    +               #             ##              ++@@@+    ",
"   +    +###############$#############$$##############++ @@+    ",
"   +    +###############$#############$$##############++ @@+    ",
"++++    +###############$#############$$##############++   +++++",
"+  +    +$$$$$$$$$$$$$$$$$$$$$$$$$$$$$$$$$$$$$$$$$$$$$++   +@@++",
"+  +    +$$$$$$$$$$$$$$$$$$$$$$$$$$$$$$$$$$$$$$$$$$$$$++   +@@++",
"+  +###############$#######################$###############+@@++",
"+  +###############$#######################$###############+@@++",
"+  +###############$#######################$###############+  ++",
"+  +$$$$$$$$$$$$$$$$$$$$$+++++++++++++$$$$$$$$$$$$$$$$$$$$$+  ++",
"+  +$$$$$$$$$$$$$$$$$$$$$+++++++++++++$$$$$$$$$$$$$$$$$$$$$+  ++",
"+##########$#############++         ++#############$##########++",
"+##########$#############++         ++#############$##########++",
"+##########$#############++         ++#############$##########++",
"+$$$$$$$$$$$$$$$$++++++++++         ++++++++++$$$$$$$$$$$$$$$$++",
"+$$$$$$$$$$$$$$$$++++++++++         ++++++++++$$$$$$$$$$$$$$$$++",
"+################++                         ++################++",
"+################++                         ++################++",
"+################++        %             %  ++################++",
"+$$$$$$$$$$$+++++++       &&%   &%&%%   &&% +++++++$$$$$$$$$$$++",
"+$$$$$$$$$$$+++++++       *&&% %&&&&&% &&&* +++++++$$$$$$$$$$$++",
"+###$$######++===++       **&&%&&&&&&&%&&** ++===++######$$###++",
"+###$$######++==++++       **&----&&&---&* +++++=++######$$###++",
"+###$$######++==++++       --&&;;----;;&%  +++++=++######$$###++",
"+$$$$$$$$$$$++==+>>+      -&&&&,;,&&,;,&&% +>>++=++$$$$$$$$$$$++",
"############++==+''+      -&&&&,;,&&,;,&&% +''++=++#############",
"############++==+''+     -&&&&***-----***&%+''++=++#############",
"############++==+''+     -&&--&&-&&&&&-&&--+''++=++#############",
"############++==+''+     --&--&-&&;&;&&-&--+''++=++#############",
"$$$$$$$$$$$$++==++++    ---&&&&-&&;&;&&-&&%+++++=++$$$$$$$$$$$$$",
"######$$####++==)++    ----&&&&&%&&&&&%&&&% ++))=++#####$#######",
"######$$####++==)++   --&---&&&&&%%%%%&&&&  ++))=++#####$#######",
"######$$####++==)++   --&&---&&&&&&&&&&&&%  ++))=++#####$#######",
"$$$$$$$$$$$$++==)++  --&-&&---&&&&&&&&&&&   ++))=++$$$$$$$$$$$$$",
"$$$$$$$$$$$$++==)+*  -&&&&&&----&&&&&&--    ++))=++$$$$$$$$$$$$$",
"############++==)*+*---&&&&&&&--------      ++))=++#############",
"############++==*** --&&&&&%*&&&&&&&&&&%%   ++))=++#############",
"############++===+**--&&-&&&**&&&&&&&&&%&*  ++===++#############",
"$$$$$$$$$$$$+++++++ ---&&-&&**&&&&&&&&&%&&* +++++++$$$$$$$$$$$$$",
"$$$$$$$$$$$$+++++++  --&&&-**&&&&&&&&&&%&** +++++++$$$$$$$$$$$$$",
"############++       ---&&&&&&&&&-&&&&%-**       ++#############",
"############++        ----&-&&-&-&-&--           ++#############",
"############++         --------------            ++#############",
"$$$$$$$$$$$$++         *-*-*    *-*-*            ++$$$$$$$$$$$$$",
"$$$$$$$$$$$$++          ***      ***             ++$$$$$$$$$$$$$",
"                                                                ",
"                                                                ",
" ...                          ...                     ...       ",
" ..                           ...                     ...       ",
" ..                           ...                     ...       ",
"                                                                "};
