/* XPM */
static char * top_wall_xpm[] = {
"64 64 9 1",
" 	c #4B9FDC",
".	c #8AB9DB",
"+	c #4C9FDC",
"@	c #4CA0DC",
"#	c #353540",
"$	c #BFB8B4",
"%	c #EDE4DA",
"&	c #918D8D",
"*	c #636167",
"                                                                ",
"                                                                ",
"                                                                ",
"                                                                ",
"                                                                ",
"                                                                ",
"                                            ..........          ",
"                                            ..........          ",
"                                  ++..........................  ",
"                                  ++..........................  ",
"                                  ++..........++++++..........  ",
"                                  ++..........++++++..........  ",
"                                    ++++++  ++      ++++  ++++  ",
"                                    ++++++  ++      ++++  ++++  ",
"                                                                ",
"                                                                ",
"          ..........                                            ",
"          ..........                                            ",
"    ......................++                                    ",
"    ......................++                                    ",
"    ........++    ........++                                    ",
"    ........++    ........++                                    ",
"    ++++++++      ++++  ++++                                    ",
"    ++++++++      ++++  ++++                                    ",
"@@                                                              ",
"@@                                                              ",
"@@@@                                                            ",
"@@@@                                                            ",
"@@@@@@@@@@@@@@@@@@@@@@@@@@@@                      @@@@@@@@@@@@@@",
"@@@@@@@@@@@@@@@@@@@@@@@@@@@@                      @@@@@@@@@@@@@@",
"##########################            ##########################",
"##########################            ##########################",
"$$$$$$##$$$$$$$$$$%%%%%%##            ##$$$$$$$$$$$$$$$$##$$$$$$",
"$$$$$$##$$$$$$$$$$%%%%%%##            ##$$$$$$$$$$$$$$$$##$$$$$$",
"$$$$$$&&$$$$$$$$$$$$$$%%##            ##$$$$$$$$$$$$$$$$&&$$$$$$",
"$$$$$$&&$$$$$$$$$$$$$$%%##            ##$$$$$$$$$$$$$$$$&&$$$$$$",
"$$$$$$&&$$$$$$$$$$$$$$$$################$$$$$$$$$$$$$$$$&&$$$$$$",
"$$$$$$&&$$$$$$$$$$$$$$$$################$$$$$$$$$$$$$$$$&&$$$$$$",
"$$$$$$&&$$$$$$$$$$$$$$$$##$$$$$$$$$$$$##$$$$$$$$$$$$$$$$&&$$$$$$",
"$$$$$$&&$$$$$$$$$$$$$$$$##$$$$$$$$$$$$##$$$$$$$$$$$$$$$$&&$$$$$$",
"&&&&&&**&&&&&&&&&&&&&&&&##$$$$$$$$$$$$##&&&&&&&&&&&&&&&&**&&&&&&",
"&&&&&&**&&&&&&&&&&&&&&&&##$$$$$$$$$$$$##&&&&&&&&&&&&&&&&**&&&&&&",
"&&&&&&**&&&&&&&&&&&&&&&&##$$$$$$$$$$$$##&&&&&&&&&&&&&&&&**&&&&&&",
"&&&&&&**&&&&&&&&&&&&&&&&##$$$$$$$$$$$$##&&&&&&&&&&&&&&&&**&&&&&&",
"************************##$$$$$$$$$$$$##************************",
"************************##$$$$$$$$$$$$##************************",
"&&&&&&&&&&**&&&&&&&&**&&&&&&&&&&&&&&&&&&&&**&&&&&&&&**&&&&&&&&&&",
"&&&&&&&&&&**&&&&&&&&**&&&&&&&&&&&&&&&&&&&&**&&&&&&&&**&&&&&&&&&&",
"&&&&&&&&&&**&&&&&&&&**&&&&&&&&&&&&&&&&&&&&**&&&&&&&&**&&&&&&&&&&",
"&&&&&&&&&&**&&&&&&&&**&&&&&&&&&&&&&&&&&&&&**&&&&&&&&**&&&&&&&&&&",
"****************************************************************",
"****************************************************************",
"&&&&&&**&&&&&&&&&&&&&&&&**&&&&&&&&&&&&**&&&&&&&&&&&&&&&&**&&&&&&",
"&&&&&&**&&&&&&&&&&&&&&&&**&&&&&&&&&&&&**&&&&&&&&&&&&&&&&**&&&&&&",
"&&&&&&**&&&&&&&&&&&&&&&&**&&&&&&&&&&&&**&&&&&&&&&&&&&&&&**&&&&&&",
"&&&&&&**&&&&&&&&&&&&&&&&**&&&&&&&&&&&&**&&&&&&&&&&&&&&&&**&&&&&&",
"****************************************************************",
"****************************************************************",
"&&&&&&&&&&**&&&&&&&&**&&&&&&&&&&&&&&&&&&&&**&&&&&&&&**&&&&&&&&&&",
"&&&&&&&&&&**&&&&&&&&**&&&&&&&&&&&&&&&&&&&&**&&&&&&&&**&&&&&&&&&&",
"&&&&&&&&&&**&&&&&&&&**&&&&&&&&&&&&&&&&&&&&**&&&&&&&&**&&&&&&&&&&",
"&&&&&&&&&&**&&&&&&&&**&&&&&&&&&&&&&&&&&&&&**&&&&&&&&**&&&&&&&&&&",
"****************************************************************",
"****************************************************************"};
