/* XPM */
static char * top_right_corner_xpm[] = {
"64 64 7 1",
" 	c #4B9FDC",
".	c #8AB9DB",
"+	c #4C9FDC",
"@	c #353540",
"#	c #BFB8B4",
"$	c #918D8D",
"%	c #636167",
"                                                                ",
"                                                                ",
"                                                                ",
"                                                                ",
"                                                                ",
"                     ...............                            ",
"                     ...............                            ",
"          ++.................................+++++++            ",
"          ++.................................+++++++            ",
"          ++............       ++............++++++++++++++     ",
"          ++............       ++............++++++++++++++     ",
"          ++............       ++............++++++++++++++     ",
"            ++++++++++++            ++  +++++++++++++++++++     ",
"            ++++++++++++            ++  +++++++++++++++++++     ",
"                                               ++++++++++++     ",
"                                               ++++++++++++     ",
"                                               ++++++++++++     ",
"                                                                ",
"                                                                ",
"                                                                ",
"                                                                ",
"                                                                ",
"                                                                ",
"                                                                ",
"                                                                ",
"                                                                ",
"                                                                ",
"                                                                ",
"                                                                ",
"                                                                ",
"@@@@@@@@@@@@@@                                                  ",
"@@@@@@@@@@@@@@                                                  ",
"############@@                                                  ",
"############@@                                                  ",
"############@@                                                  ",
"############@@                                                  ",
"############@@                                                  ",
"############@@                                                  ",
"############@@                                    ++            ",
"############@@                                    ++            ",
"############@@          ++++            +++++++++++++++         ",
"############@@          ++++            +++++++++++++++         ",
"$$##########@@          ++++            +++++++++++++++         ",
"$$##########@@          ++++   +++++++..............++++++++++  ",
"$$##########@@          ++++   +++++++..............++++++++++  ",
"$$##########@@              +++............................+++  ",
"%%$$$$$$$$$$@@              +++............................+++  ",
"%%$$$$$$$$$$@@              +++.........+++    +++.........+++  ",
"%%$$$$$$$$$$@@              +++.........+++    +++.........+++  ",
"$$##########@@              +++.........+++    +++.........+++  ",
"$$##########@@              ++++++++  ++          ++   ++++     ",
"$$##########@@              ++++++++  ++          ++   ++++     ",
"$$##########@@                                                  ",
"%%##########@@                                                  ",
"%%##########@@                                                  ",
"%%##########@@                                                  ",
"$$##########@@                                                  ",
"$$##########@@                                                  ",
"$$##########@@                                                  ",
"$$##########@@                                                  ",
"$$##########@@                                                  ",
"%%##########@@                                                  ",
"%%##########@@                                                  ",
"$$##########@@                                                  "};
