/* XPM */
static char * you_win_xpm[] = {
"128 30 2 1",
" 	c None",
".	c #000000",
"    .....    ....         ........         ....        .....             ....             ....    ....     ....        .....    ",
"    .....    ....         ........         ....        .....             ....             ....    ....     ....        .....    ",
"    .....    ....         ........         ....        .....             ....             ....    ....     ....        .....    ",
"    .....    ....         ........         ....        .....             ....             ....    ....     ....        .....    ",
"    .....    ....    .....        ....     ....        .....             ....             ....    ....     ....        .....    ",
"    .....    ....    .....        ....     ....        .....             ....             ....    ....     ....        .....    ",
"    .....    ....    .....        ....     ....        .....             ....             ....    ....     ....        .....    ",
"    .....    ....    .....        ....     ....        .....             ....             ....    ....     ....        .....    ",
"    .....    ....    .....        ....     ....        .....             ....             ....    ....     ....        .....    ",
"    .....    ....    .....        ....     ....        .....             ....    ....     ....    ....     ........    .....    ",
"    .....    ....    .....        ....     ....        .....             ....    ....     ....    ....     ........    .....    ",
"    .....    ....    .....        ....     ....        .....             ....    ....     ....    ....     ........    .....    ",
"    .....    ....    .....        ....     ....        .....             ....    ....     ....    ....     ........    .....    ",
"    .....    ....    .....        ....     ....        .....             ....    ....     ....    ....     ....    .........    ",
"    .....    ....    .....        ....     ....        .....             ....    ....     ....    ....     ....    .........    ",
"    .....    ....    .....        ....     ....        .....             ....    ....     ....    ....     ....    .........    ",
"    .....    ....    .....        ....     ....        .....             ....    ....     ....    ....     ....    .........    ",
"         ....        .....        ....     ....        .....             ....    ....     ....    ....     ....        .....    ",
"         ....        .....        ....     ....        .....             ....    ....     ....    ....     ....        .....    ",
"         ....        .....        ....     ....        .....             ....    ....     ....    ....     ....        .....    ",
"         ....        .....        ....     ....        .....             ....    ....     ....    ....     ....        .....    ",
"         ....        .....        ....     ....        .....             ....    ....     ....    ....     ....        .....    ",
"         ....        .....        ....     ....        .....             ....    ....     ....    ....     ....        .....    ",
"         ....        .....        ....     ....        .....             ....    ....     ....    ....     ....        .....    ",
"         ....        .....        ....     ....        .....             ....    ....     ....    ....     ....        .....    ",
"         ....        .....        ....     ....        .....             ....    ....     ....    ....     ....        .....    ",
"         ....             ........             ........                      ....    .....        ....     ....        .....    ",
"         ....             ........             ........                      ....    .....        ....     ....        .....    ",
"         ....             ........             ........                      ....    .....        ....     ....        .....    ",
"         ....             ........             ........                      ....    .....        ....     ....        .....    "};
