/* XPM */
static char * you_lose_xpm[] = {
"128 24 2 1",
" 	c None",
".	c #000000",
"   ....   ....       .......       ...       ...           ...                  ......           .......          ...........   ",
"   ....   ....       .......       ...       ...           ...                  ......           .......          ...........   ",
"   ....   ....       .......       ...       ...           ...                  ......           .......          ...........   ",
"   ....   ....   ....       ...    ...       ...           ...              ....      ....   ....       ...    ...              ",
"   ....   ....   ....       ...    ...       ...           ...              ....      ....   ....       ...    ...              ",
"   ....   ....   ....       ...    ...       ...           ...              ....      ....   ....       ...    ...              ",
"   ....   ....   ....       ...    ...       ...           ...              ....      ....   ....       ...    ...              ",
"   ....   ....   ....       ...    ...       ...           ...              ....      ....   ....              ...              ",
"   ....   ....   ....       ...    ...       ...           ...              ....      ....   ....              ...              ",
"   ....   ....   ....       ...    ...       ...           ...              ....      ....   ....              ...              ",
"   ....   ....   ....       ...    ...       ...           ...              ....      ....       .......       ..........       ",
"   ....   ....   ....       ...    ...       ...           ...              ....      ....       .......       ..........       ",
"   ....   ....   ....       ...    ...       ...           ...              ....      ....       .......       ..........       ",
"   ....   ....   ....       ...    ...       ...           ...              ....      ....       .......       ..........       ",
"       ...       ....       ...    ...       ...           ...              ....      ....              ...    ...              ",
"       ...       ....       ...    ...       ...           ...              ....      ....              ...    ...              ",
"       ...       ....       ...    ...       ...           ...              ....      ....              ...    ...              ",
"       ...       ....       ...    ...       ...           ...              ....      ....   ....       ...    ...              ",
"       ...       ....       ...    ...       ...           ...              ....      ....   ....       ...    ...              ",
"       ...       ....       ...    ...       ...           ...              ....      ....   ....       ...    ...              ",
"       ...       ....       ...    ...       ...           ...              ....      ....   ....       ...    ...              ",
"       ...           .......          .......                 ...........       ......           .......          ...........   ",
"       ...           .......          .......                 ...........       ......           .......          ...........   ",
"       ...           .......          .......                 ...........       ......           .......          ...........   "};
