/* XPM */
static char * dead_blood_2_xpm[] = {
"32 32 146 2",
"  	c None",
". 	c #84332A",
"+ 	c #8E3F35",
"@ 	c #E8D29E",
"# 	c #E7CC99",
"$ 	c #DD6656",
"% 	c #E7CB99",
"& 	c #985946",
"* 	c #E2CB98",
"= 	c #96483D",
"- 	c #D1806E",
"; 	c #9A4E42",
"> 	c #E8CD9B",
", 	c #E2957D",
"' 	c #E1917A",
") 	c #DD6055",
"! 	c #DC6054",
"~ 	c #DD947A",
"{ 	c #E7CE9B",
"] 	c #E8D39E",
"^ 	c #904438",
"/ 	c #97493E",
"( 	c #D78572",
"_ 	c #E29A7F",
": 	c #ED1B1B",
"< 	c #974439",
"[ 	c #D78C75",
"} 	c #DD987D",
"| 	c #E18D79",
"1 	c #E2947C",
"2 	c #E18E79",
"3 	c #E18976",
"4 	c #E08673",
"5 	c #DB8572",
"6 	c #A05447",
"7 	c #DC9079",
"8 	c #E29B80",
"9 	c #E7C898",
"0 	c #DC8D76",
"a 	c #DC8875",
"b 	c #D9745E",
"c 	c #E6C897",
"d 	c #E8CE9B",
"e 	c #DC5B51",
"f 	c #E18A76",
"g 	c #DD6659",
"h 	c #DD6458",
"i 	c #DA826F",
"j 	c #984C42",
"k 	c #DD9483",
"l 	c #E29886",
"m 	c #DA8D77",
"n 	c #E29A80",
"o 	c #E7C596",
"p 	c #E08674",
"q 	c #D86256",
"r 	c #A05B54",
"s 	c #E4DCD3",
"t 	c #E2DCD3",
"u 	c #76554F",
"v 	c #D56353",
"w 	c #E7C696",
"x 	c #DD5C52",
"y 	c #E7CA99",
"z 	c #E29B7F",
"A 	c #D98975",
"B 	c #D98874",
"C 	c #DF8673",
"D 	c #D15A51",
"E 	c #7A6A66",
"F 	c #6A6864",
"G 	c #622E2A",
"H 	c #D55D52",
"I 	c #E2977D",
"J 	c #973931",
"K 	c #D7524A",
"L 	c #DD5F54",
"M 	c #DB9179",
"N 	c #75473C",
"O 	c #DA8572",
"P 	c #DE6F66",
"Q 	c #E9DCD4",
"R 	c #E8DCD3",
"S 	c #D76D64",
"T 	c #8D352D",
"U 	c #CD4D45",
"V 	c #DB584F",
"W 	c #E08371",
"X 	c #E0947C",
"Y 	c #D18370",
"Z 	c #DF8875",
"` 	c #DD6257",
" .	c #E29584",
"..	c #85322A",
"+.	c #9D3B33",
"@.	c #DD6357",
"#.	c #E08774",
"$.	c #DD6156",
"%.	c #E18E7A",
"&.	c #E07F6E",
"*.	c #DD685B",
"=.	c #D96D65",
"-.	c #E9DCD3",
";.	c #D66861",
">.	c #DC5F54",
",.	c #983931",
"'.	c #944039",
").	c #706965",
"!.	c #622D29",
"~.	c #D5574D",
"{.	c #DC594F",
"].	c #E18C79",
"^.	c #DC5A51",
"/.	c #995E56",
"(.	c #D5594E",
"_.	c #DC544C",
":.	c #DC8975",
"<.	c #E08976",
"[.	c #DC5A50",
"}.	c #A05448",
"|.	c #DA8674",
"1.	c #DD6E5D",
"2.	c #E7C796",
"3.	c #E08C78",
"4.	c #D78471",
"5.	c #D68471",
"6.	c #DD5E54",
"7.	c #DC8573",
"8.	c #DC8673",
"9.	c #DC5950",
"0.	c #974A3F",
"a.	c #8E3F36",
"b.	c #8F4237",
"c.	c #A05F4C",
"d.	c #D85E53",
"e.	c #9F4B40",
"f.	c #9F4C41",
"g.	c #DC8F78",
"h.	c #E1C293",
"i.	c #E1937C",
"j.	c #D7584E",
"k.	c #8E362E",
"l.	c #D96357",
"m.	c #DB8975",
"n.	c #DC544B",
"o.	c #DC534B",
"                                                                ",
"                                                                ",
"                                                                ",
"                                                                ",
"                                                                ",
"                                                                ",
"                                                                ",
"                . +               @ # $ $ %         . & *       ",
"              . = - ;         > , , ' ) ! ~ { ]   ^ / ( _ @     ",
"          :   < [ : } @     | 1 2 | 3 4 5 6 7 8 9 0 a | 2       ",
"            : b c : d ] : e f | : ' g h i j k l m g ' 2         ",
"              : 8 : , , : ) f 2 n o ' p q r s t u v w           ",
"            x : 2 : | : : p | , y z A B C D E F G H I d         ",
"        J K L : | : | : ) 3 | , d M N N O P Q R S 4 | 8 ]       ",
"      T U V W : : : | : ) : : , d X Y Y Z `  . .` 3 | , d       ",
"      ..+.K @.#.: : : 3 ) 3 : , d M N N O `  . .$.4 : %.8       ",
"      T U V &.*.: : : : ) 3 | , y z A B C =.-.R ;.>.f : :       ",
"        ,.K @.#.| : : : L 4 : 2 n o ' p q '.).F !.~.f , :       ",
"          {.W ].| : : : ^.L : | 2 ' g h i /.s t u (.I >         ",
"          _.h f | :.: <.: [.4 : : | 3 4 5 }.k l |.1.2.          ",
"          [.4 3.4./ / 5.: [.6.p | : f L >.7.| | <.8._ d         ",
"          9.4 a 0.a.b.c.8.L _.6.p | f L L f | f d.e.( _ d       ",
"        ,.K h 5 f.5.g.h.i.p 6._.6.4 3 4 3 ].f 4 j.k.= ( _ @     ",
"      T U V W <.l.p | 1 2 | p 6._.9.[.L 4 p ) ^.    . 0.m.      ",
"    : : : : : : : : : | : : : : : n.o.: : : : : : : : :         ",
"                                                                ",
"                                                                ",
"                                                                ",
"                                                                ",
"                                                                ",
"                                                                ",
"                                                                "};
