/* XPM */
static char * dead_blood_1_xpm[] = {
"32 32 147 2",
"  	c None",
". 	c #84332A",
"+ 	c #8E3F35",
"@ 	c #E8D29E",
"# 	c #E7CC99",
"$ 	c #DD6656",
"% 	c #E7CB99",
"& 	c #985946",
"* 	c #E2CB98",
"= 	c #96483D",
"- 	c #D1806E",
"; 	c #9A4E42",
"> 	c #E8CD9B",
", 	c #E2957D",
"' 	c #E1917A",
") 	c #DD6055",
"! 	c #DC6054",
"~ 	c #DD947A",
"{ 	c #E7CE9B",
"] 	c #E8D39E",
"^ 	c #904438",
"/ 	c #97493E",
"( 	c #D78572",
"_ 	c #E29A7F",
": 	c #974439",
"< 	c #D78C75",
"[ 	c #E1947C",
"} 	c #DD987D",
"| 	c #E18D79",
"1 	c #E2947C",
"2 	c #E18E79",
"3 	c #E18976",
"4 	c #E08673",
"5 	c #DB8572",
"6 	c #A05447",
"7 	c #DC9079",
"8 	c #E29B80",
"9 	c #E7C898",
"0 	c #DC8D76",
"a 	c #DC8875",
"b 	c #D9745E",
"c 	c #E6C897",
"d 	c #E8CE9B",
"e 	c #DC5B51",
"f 	c #E18A76",
"g 	c #ED1B1B",
"h 	c #DD6659",
"i 	c #DD6458",
"j 	c #DA826F",
"k 	c #984C42",
"l 	c #DD9483",
"m 	c #E29886",
"n 	c #DA8D77",
"o 	c #E7C796",
"p 	c #E29A80",
"q 	c #E7C596",
"r 	c #E08674",
"s 	c #D86256",
"t 	c #A05B54",
"u 	c #E4DCD3",
"v 	c #E2DCD3",
"w 	c #76554F",
"x 	c #D56353",
"y 	c #E7C696",
"z 	c #DD5C52",
"A 	c #E7CA99",
"B 	c #E29B7F",
"C 	c #D98975",
"D 	c #D98874",
"E 	c #DF8673",
"F 	c #D15A51",
"G 	c #7A6A66",
"H 	c #6A6864",
"I 	c #622E2A",
"J 	c #D55D52",
"K 	c #E2977D",
"L 	c #973931",
"M 	c #D7524A",
"N 	c #DD5F54",
"O 	c #DB9179",
"P 	c #75473C",
"Q 	c #DA8572",
"R 	c #DE6F66",
"S 	c #E9DCD4",
"T 	c #E8DCD3",
"U 	c #D76D64",
"V 	c #8D352D",
"W 	c #CD4D45",
"X 	c #DB584F",
"Y 	c #E08371",
"Z 	c #E0947C",
"` 	c #D18370",
" .	c #DF8875",
"..	c #DD6257",
"+.	c #E29584",
"@.	c #85322A",
"#.	c #9D3B33",
"$.	c #DD6357",
"%.	c #E08774",
"&.	c #DD6156",
"*.	c #E18E7A",
"=.	c #E07F6E",
"-.	c #DD685B",
";.	c #D96D65",
">.	c #E9DCD3",
",.	c #D66861",
"'.	c #DC5F54",
").	c #983931",
"!.	c #944039",
"~.	c #706965",
"{.	c #622D29",
"].	c #D5574D",
"^.	c #DC594F",
"/.	c #E18C79",
"(.	c #DC5A51",
"_.	c #995E56",
":.	c #D5594E",
"<.	c #DC544C",
"[.	c #DC8975",
"}.	c #E08976",
"|.	c #DC5A50",
"1.	c #A05448",
"2.	c #DA8674",
"3.	c #DD6E5D",
"4.	c #E08C78",
"5.	c #D78471",
"6.	c #D68471",
"7.	c #DD5E54",
"8.	c #DC8573",
"9.	c #DC8673",
"0.	c #DC5950",
"a.	c #974A3F",
"b.	c #8E3F36",
"c.	c #8F4237",
"d.	c #A05F4C",
"e.	c #D85E53",
"f.	c #9F4B40",
"g.	c #9F4C41",
"h.	c #DC8F78",
"i.	c #E1C293",
"j.	c #E1937C",
"k.	c #D7584E",
"l.	c #8E362E",
"m.	c #D96357",
"n.	c #DB8975",
"o.	c #DC544B",
"p.	c #DC534B",
"                                                                ",
"                                                                ",
"                                                                ",
"                                                                ",
"                                                                ",
"                                                                ",
"                                                                ",
"                . +               @ # $ $ %         . & *       ",
"              . = - ;         > , , ' ) ! ~ { ]   ^ / ( _ @     ",
"              : < [ } @     | 1 2 | 3 4 5 6 7 8 9 0 a | 2       ",
"              b c d d ]   e f | g ' h i j k l m n h ' 2         ",
"              o 8 , , ,   ) f 2 p q ' r s t u v w x y           ",
"            z ' 2 g | f ) r | , A B C D E F G H I J K d         ",
"        L M N g | g | g ) 3 | , d O P P Q R S T U 4 | 8 ]       ",
"      V W X Y g g g | g ) g g , d Z ` `  ...+.+...3 | , d       ",
"      @.#.M $.%.g g g 3 ) 3 g , d O P P Q ..+.+.&.4 g *.8       ",
"      V W X =.-.g g g g ) 3 | , A B C D E ;.>.T ,.'.f g g       ",
"        ).M $.%.| | | 3 N 4 g 2 p q ' r s !.~.H {.].f , g       ",
"          ^.Y /.| | | 3 (.N g | 2 ' h i j _.u v w :.K >         ",
"          <.i f | [.[.}.N |.4 g g | 3 4 5 1.l m 2.3.o           ",
"          |.4 4.5./ / 6.4 |.7.r | g f N '.8.| | }.9._ d         ",
"          0.4 a a.b.c.d.9.N <.7.r | f N N f | f e.f.( _ d       ",
"        ).M i 5 g.6.h.i.j.r 7.<.7.4 3 4 3 /.f 4 k.l.= ( _ @     ",
"      V W X Y }.m.r | 1 2 | r 7.<.0.|.N 4 r ) (.    . a.n.      ",
"    g g g g g g g g g | g g g g g o.p.g g g g g g g g g         ",
"                                                                ",
"                                                                ",
"                                                                ",
"                                                                ",
"                                                                ",
"                                                                ",
"                                                                "};
