/* XPM */
static char * dead_vierge_xpm[] = {
"32 32 148 2",
"  	c None",
". 	c #84332A",
"+ 	c #8E3F35",
"@ 	c #E8D29E",
"# 	c #E7CC99",
"$ 	c #DD6656",
"% 	c #E7CB99",
"& 	c #985946",
"* 	c #E2CB98",
"= 	c #96483D",
"- 	c #D1806E",
"; 	c #9A4E42",
"> 	c #E8CD9B",
", 	c #E2957D",
"' 	c #E1917A",
") 	c #DD6055",
"! 	c #DC6054",
"~ 	c #DD947A",
"{ 	c #E7CE9B",
"] 	c #E8D39E",
"^ 	c #904438",
"/ 	c #97493E",
"( 	c #D78572",
"_ 	c #E29A7F",
": 	c #974439",
"< 	c #D78C75",
"[ 	c #E1947C",
"} 	c #DD987D",
"| 	c #E18D79",
"1 	c #E2947C",
"2 	c #E18E79",
"3 	c #E18976",
"4 	c #E08673",
"5 	c #DB8572",
"6 	c #A05447",
"7 	c #DC9079",
"8 	c #E29B80",
"9 	c #E7C898",
"0 	c #DC8D76",
"a 	c #DC8875",
"b 	c #D9745E",
"c 	c #E6C897",
"d 	c #E8CE9B",
"e 	c #DC5B51",
"f 	c #E18A76",
"g 	c #DD6659",
"h 	c #DD6458",
"i 	c #DA826F",
"j 	c #984C42",
"k 	c #DD9483",
"l 	c #E29886",
"m 	c #DA8D77",
"n 	c #E7C796",
"o 	c #E29A80",
"p 	c #E7C596",
"q 	c #E08674",
"r 	c #D86256",
"s 	c #A05B54",
"t 	c #E4DCD3",
"u 	c #E2DCD3",
"v 	c #76554F",
"w 	c #D56353",
"x 	c #E7C696",
"y 	c #DD5C52",
"z 	c #E7CA99",
"A 	c #E29B7F",
"B 	c #D98975",
"C 	c #D98874",
"D 	c #DF8673",
"E 	c #D15A51",
"F 	c #7A6A66",
"G 	c #6A6864",
"H 	c #622E2A",
"I 	c #D55D52",
"J 	c #E2977D",
"K 	c #973931",
"L 	c #D7524A",
"M 	c #DD5F54",
"N 	c #DB9179",
"O 	c #75473C",
"P 	c #DA8572",
"Q 	c #DE6F66",
"R 	c #E9DCD4",
"S 	c #E8DCD3",
"T 	c #D76D64",
"U 	c #8D352D",
"V 	c #CD4D45",
"W 	c #DB584F",
"X 	c #E08371",
"Y 	c #E18C79",
"Z 	c #E0947C",
"` 	c #D18370",
" .	c #DF8875",
"..	c #DD6257",
"+.	c #E29584",
"@.	c #85322A",
"#.	c #9D3B33",
"$.	c #DD6357",
"%.	c #E08774",
"&.	c #DD6156",
"*.	c #E18E7A",
"=.	c #E07F6E",
"-.	c #DD685B",
";.	c #D96D65",
">.	c #E9DCD3",
",.	c #D66861",
"'.	c #DC5F54",
").	c #E7C999",
"!.	c #983931",
"~.	c #944039",
"{.	c #706965",
"].	c #622D29",
"^.	c #D5574D",
"/.	c #E2967D",
"(.	c #DC594F",
"_.	c #DC5A51",
":.	c #995E56",
"<.	c #D5594E",
"[.	c #DC544C",
"}.	c #DC8975",
"|.	c #E08976",
"1.	c #DC5A50",
"2.	c #A05448",
"3.	c #DA8674",
"4.	c #DD6E5D",
"5.	c #E08C78",
"6.	c #D78471",
"7.	c #D68471",
"8.	c #DD5E54",
"9.	c #DC8573",
"0.	c #DC8673",
"a.	c #DC5950",
"b.	c #974A3F",
"c.	c #8E3F36",
"d.	c #8F4237",
"e.	c #A05F4C",
"f.	c #D85E53",
"g.	c #9F4B40",
"h.	c #9F4C41",
"i.	c #DC8F78",
"j.	c #E1C293",
"k.	c #E1937C",
"l.	c #D7584E",
"m.	c #8E362E",
"n.	c #D96357",
"o.	c #DB8975",
"p.	c #DC544B",
"q.	c #DC534B",
"                                                                ",
"                                                                ",
"                                                                ",
"                                                                ",
"                                                                ",
"                                                                ",
"                                                                ",
"                . +               @ # $ $ %         . & *       ",
"              . = - ;         > , , ' ) ! ~ { ]   ^ / ( _ @     ",
"              : < [ } @     | 1 2 | 3 4 5 6 7 8 9 0 a | 2       ",
"              b c d d ]   e f | 2 ' g h i j k l m g ' 2         ",
"              n 8 , , ,   ) f 2 o p ' q r s t u v w x           ",
"            y ' 2 | | f ) q | , z A B C D E F G H I J d         ",
"        K L M f | | | 3 ) 3 | , d N O O P Q R S T 4 | 8 ]       ",
"      U V W X Y | | | 3 ) 3 | , d Z ` `  ...+.+...3 | , d       ",
"      @.#.L $.%.| | | 3 ) 3 | , d N O O P ..+.+.&.4 | *.8       ",
"      U V W =.-.f | | 3 ) 3 | , z A B C D ;.>.S ,.'.f 1 ).      ",
"        !.L $.%.| | | 3 M 4 | 2 o p ' q r ~.{.G ].^.f , /.      ",
"          (.X Y | | | 3 _.M f | 2 ' g h i :.t u v <.J >         ",
"          [.h f | }.}.|.M 1.4 | | | 3 4 5 2.k l 3.4.n           ",
"          1.4 5.6./ / 7.4 1.8.q | | f M '.9.| | |.0._ d         ",
"          a.4 a b.c.d.e.0.M [.8.q | f M M f | f f.g.( _ d       ",
"        !.L h 5 h.7.i.j.k.q 8.[.8.4 3 4 3 Y f 4 l.m.= ( _ @     ",
"      U V W X |.n.q | 1 2 | q 8.[.a.1.M 4 q ) _.    . b.o.      ",
"      @.#.L M 3 %.-.%.| | | f 4 8.p.q.p.1._.                    ",
"                                                                ",
"                                                                ",
"                                                                ",
"                                                                ",
"                                                                ",
"                                                                ",
"                                                                "};
