/* XPM */
static char * nine_xpm[] = {
"16 22 3 1",
" 	c #4B9FDC",
".	c #000000",
"+	c #4C9FDC",
"   .......      ",
"   .......      ",
"   .......      ",
"...       ...   ",
"...       ...   ",
"...       ...   ",
"...       ...   ",
"...       ...   ",
"...       ...   ",
"   ..........   ",
"   ..........   ",
"   ..........   ",
"   ..........   ",
"          ...   ",
"          ...   ",
"          ...   ",
"...       ...   ",
"...       ...   ",
"...       ...   ",
"+++.......      ",
"+++.......      ",
"+++.......      "};
