/* XPM */
static char * seven_xpm[] = {
"16 22 2 1",
" 	c None",
".	c #000000",
".............   ",
".............   ",
".............   ",
"          ...   ",
"          ...   ",
"          ...   ",
"          ...   ",
"          ...   ",
"          ...   ",
"      ....      ",
"      ....      ",
"      ....      ",
"      ....      ",
"      ....      ",
"      ....      ",
"      ....      ",
"   ...          ",
"   ...          ",
"   ...          ",
"   ...          ",
"   ...          ",
"   ...          "};
