/* XPM */
static char * two_xpm[] = {
"16 22 2 1",
" 	c #4B9FDC",
".	c #000000",
"   .......      ",
"   .......      ",
"   .......      ",
"...       ...   ",
"...       ...   ",
"...       ...   ",
"          ...   ",
"          ...   ",
"          ...   ",
"      ....      ",
"      ....      ",
"      ....      ",
"      ....      ",
"   ...          ",
"   ...          ",
"   ...          ",
"...             ",
"...             ",
"...             ",
".............   ",
".............   ",
".............   "};
